<?xml version="1.0" encoding="UTF-8" standalone="no"?>
<!DOCTYPE svg PUBLIC "-//W3C//DTD SVG 1.1//EN"
 "http://www.w3.org/Graphics/SVG/1.1/DTD/svg11.dtd">
<!-- Generated by graphviz version 2.40.1 (20161225.0304)
 -->
<!-- Title: dependencies Pages: 1 -->
<svg width="532pt" height="211pt"
 viewBox="0.00 0.00 532.00 211.00" xmlns="http://www.w3.org/2000/svg" xmlns:xlink="http://www.w3.org/1999/xlink">
<g id="graph0" class="graph" transform="scale(1 1) rotate(0) translate(4 207)">
<title>dependencies</title>
<polygon fill="#ffffff" stroke="transparent" points="-4,4 -4,-207 528,-207 528,4 -4,4"/>
<text text-anchor="start" x="241.0091" y="-42.4" font-family="sans-serif" font-weight="bold" font-size="14.00" fill="#000000">Legend</text>
<polygon fill="#ffffb3" stroke="transparent" points="28,-10 28,-30 48,-30 48,-10 28,-10"/>
<text text-anchor="start" x="51.629" y="-15.4" font-family="sans-serif" font-size="14.00" fill="#000000"> &#160;Declarations</text>
<polygon fill="#8dd3c7" stroke="transparent" points="141,-10 141,-30 161,-30 161,-10 141,-10"/>
<text text-anchor="start" x="164.7251" y="-15.4" font-family="sans-serif" font-size="14.00" fill="#000000"> &#160;Module</text>
<polygon fill="#80b1d3" stroke="transparent" points="227,-10 227,-30 247,-30 247,-10 227,-10"/>
<text text-anchor="start" x="250.7812" y="-15.4" font-family="sans-serif" font-size="14.00" fill="#000000"> &#160;Bootstrap</text>
<polygon fill="#fdb462" stroke="transparent" points="324,-10 324,-30 344,-30 344,-10 324,-10"/>
<text text-anchor="start" x="347.6732" y="-15.4" font-family="sans-serif" font-size="14.00" fill="#000000"> &#160;Providers</text>
<polygon fill="#fb8072" stroke="transparent" points="420,-10 420,-30 440,-30 440,-10 420,-10"/>
<text text-anchor="start" x="443.7258" y="-15.4" font-family="sans-serif" font-size="14.00" fill="#000000"> &#160;Exports</text>
<g id="clust1" class="cluster">
<title>cluster_UserCreationModule</title>
<polygon fill="none" stroke="#000000" stroke-dasharray="1,5" points="8,-70 8,-195 516,-195 516,-70 8,-70"/>
</g>
<g id="clust2" class="cluster">
<title>cluster_UserCreationModule_declarations</title>
<polygon fill="none" stroke="#000000" points="336,-78 336,-130 508,-130 508,-78 336,-78"/>
</g>
<g id="clust4" class="cluster">
<title>cluster_UserCreationModule_imports</title>
<polygon fill="none" stroke="#000000" points="16,-78 16,-130 328,-130 328,-78 16,-78"/>
</g>
<!-- UserCreationComponent -->
<g id="node1" class="node">
<title>UserCreationComponent</title>
<polygon fill="#ffffb3" stroke="#000000" points="499.9664,-122 344.0336,-122 344.0336,-86 499.9664,-86 499.9664,-122"/>
<text text-anchor="middle" x="422" y="-99.8" font-family="Times,serif" font-size="14.00" fill="#000000">UserCreationComponent</text>
</g>
<!-- UserCreationModule -->
<g id="node2" class="node">
<title>UserCreationModule</title>
<polygon fill="#8dd3c7" stroke="#000000" points="338.1839,-187 335.1839,-191 314.1839,-191 311.1839,-187 203.8161,-187 203.8161,-151 338.1839,-151 338.1839,-187"/>
<text text-anchor="middle" x="271" y="-164.8" font-family="Times,serif" font-size="14.00" fill="#000000">UserCreationModule</text>
</g>
<!-- UserCreationComponent&#45;&gt;UserCreationModule -->
<g id="edge1" class="edge">
<title>UserCreationComponent&#45;&gt;UserCreationModule</title>
<path fill="none" stroke="#000000" d="M343.6591,-104C334.9545,-104 329.1515,-104 329.1515,-104 329.1515,-104 329.1515,-140.8939 329.1515,-140.8939"/>
<polygon fill="#000000" stroke="#000000" points="325.6516,-140.8938 329.1515,-150.8939 332.6516,-140.8939 325.6516,-140.8938"/>
</g>
<!-- SharedModule -->
<g id="node3" class="node">
<title>SharedModule</title>
<polygon fill="#8dd3c7" stroke="#000000" points="320.4231,-122 317.4231,-126 296.4231,-126 293.4231,-122 221.5769,-122 221.5769,-86 320.4231,-86 320.4231,-122"/>
<text text-anchor="middle" x="271" y="-99.8" font-family="Times,serif" font-size="14.00" fill="#000000">SharedModule</text>
</g>
<!-- SharedModule&#45;&gt;UserCreationModule -->
<g id="edge2" class="edge">
<title>SharedModule&#45;&gt;UserCreationModule</title>
<path fill="none" stroke="#000000" d="M271,-122.1061C271,-122.1061 271,-140.991 271,-140.991"/>
<polygon fill="#000000" stroke="#000000" points="267.5001,-140.9909 271,-150.991 274.5001,-140.991 267.5001,-140.9909"/>
</g>
<!-- UserCreationRoutingModule -->
<g id="node4" class="node">
<title>UserCreationRoutingModule</title>
<polygon fill="#8dd3c7" stroke="#000000" points="203.8019,-122 200.8019,-126 179.8019,-126 176.8019,-122 24.1981,-122 24.1981,-86 203.8019,-86 203.8019,-122"/>
<text text-anchor="middle" x="114" y="-99.8" font-family="Times,serif" font-size="14.00" fill="#000000">UserCreationRoutingModule</text>
</g>
<!-- UserCreationRoutingModule&#45;&gt;UserCreationModule -->
<g id="edge3" class="edge">
<title>UserCreationRoutingModule&#45;&gt;UserCreationModule</title>
<path fill="none" stroke="#000000" d="M203.7263,-104C209.3734,-104 212.8485,-104 212.8485,-104 212.8485,-104 212.8485,-140.8939 212.8485,-140.8939"/>
<polygon fill="#000000" stroke="#000000" points="209.3486,-140.8938 212.8485,-150.8939 216.3486,-140.8939 209.3486,-140.8938"/>
</g>
</g>
</svg>
