<?xml version="1.0" encoding="UTF-8" standalone="no"?>
<!DOCTYPE svg PUBLIC "-//W3C//DTD SVG 1.1//EN"
 "http://www.w3.org/Graphics/SVG/1.1/DTD/svg11.dtd">
<!-- Generated by graphviz version 2.40.1 (20161225.0304)
 -->
<!-- Title: dependencies Pages: 1 -->
<svg width="1663pt" height="211pt"
 viewBox="0.00 0.00 1663.00 211.00" xmlns="http://www.w3.org/2000/svg" xmlns:xlink="http://www.w3.org/1999/xlink">
<g id="graph0" class="graph" transform="scale(1 1) rotate(0) translate(4 207)">
<title>dependencies</title>
<polygon fill="#ffffff" stroke="transparent" points="-4,4 -4,-207 1659,-207 1659,4 -4,4"/>
<text text-anchor="start" x="806.5091" y="-42.4" font-family="sans-serif" font-weight="bold" font-size="14.00" fill="#000000">Legend</text>
<polygon fill="#ffffb3" stroke="transparent" points="593.5,-10 593.5,-30 613.5,-30 613.5,-10 593.5,-10"/>
<text text-anchor="start" x="617.129" y="-15.4" font-family="sans-serif" font-size="14.00" fill="#000000"> &#160;Declarations</text>
<polygon fill="#8dd3c7" stroke="transparent" points="706.5,-10 706.5,-30 726.5,-30 726.5,-10 706.5,-10"/>
<text text-anchor="start" x="730.2251" y="-15.4" font-family="sans-serif" font-size="14.00" fill="#000000"> &#160;Module</text>
<polygon fill="#80b1d3" stroke="transparent" points="792.5,-10 792.5,-30 812.5,-30 812.5,-10 792.5,-10"/>
<text text-anchor="start" x="816.2812" y="-15.4" font-family="sans-serif" font-size="14.00" fill="#000000"> &#160;Bootstrap</text>
<polygon fill="#fdb462" stroke="transparent" points="889.5,-10 889.5,-30 909.5,-30 909.5,-10 889.5,-10"/>
<text text-anchor="start" x="913.1732" y="-15.4" font-family="sans-serif" font-size="14.00" fill="#000000"> &#160;Providers</text>
<polygon fill="#fb8072" stroke="transparent" points="985.5,-10 985.5,-30 1005.5,-30 1005.5,-10 985.5,-10"/>
<text text-anchor="start" x="1009.2258" y="-15.4" font-family="sans-serif" font-size="14.00" fill="#000000"> &#160;Exports</text>
<g id="clust1" class="cluster">
<title>cluster_MarketingCheckerModule</title>
<polygon fill="none" stroke="#000000" stroke-dasharray="1,5" points="8,-70 8,-195 1647,-195 1647,-70 8,-70"/>
</g>
<g id="clust2" class="cluster">
<title>cluster_MarketingCheckerModule_declarations</title>
<polygon fill="none" stroke="#000000" points="366,-78 366,-130 1639,-130 1639,-78 366,-78"/>
</g>
<g id="clust9" class="cluster">
<title>cluster_MarketingCheckerModule_imports</title>
<polygon fill="none" stroke="#000000" points="16,-78 16,-130 358,-130 358,-78 16,-78"/>
</g>
<!-- ApproveTemplateDialogComponent -->
<g id="node1" class="node">
<title>ApproveTemplateDialogComponent</title>
<polygon fill="#ffffb3" stroke="#000000" points="1630.785,-122 1409.215,-122 1409.215,-86 1630.785,-86 1630.785,-122"/>
<text text-anchor="middle" x="1520" y="-99.8" font-family="Times,serif" font-size="14.00" fill="#000000">ApproveTemplateDialogComponent</text>
</g>
<!-- MarketingCheckerModule -->
<g id="node7" class="node">
<title>MarketingCheckerModule</title>
<polygon fill="#8dd3c7" stroke="#000000" points="929.0071,-187 926.0071,-191 905.0071,-191 902.0071,-187 764.9929,-187 764.9929,-151 929.0071,-151 929.0071,-187"/>
<text text-anchor="middle" x="847" y="-164.8" font-family="Times,serif" font-size="14.00" fill="#000000">MarketingCheckerModule</text>
</g>
<!-- ApproveTemplateDialogComponent&#45;&gt;MarketingCheckerModule -->
<g id="edge1" class="edge">
<title>ApproveTemplateDialogComponent&#45;&gt;MarketingCheckerModule</title>
<path fill="none" stroke="#000000" d="M1520,-122.2921C1520,-144.2057 1520,-178 1520,-178 1520,-178 939.1863,-178 939.1863,-178"/>
<polygon fill="#000000" stroke="#000000" points="939.1864,-174.5001 929.1863,-178 939.1863,-181.5001 939.1864,-174.5001"/>
</g>
<!-- LaunchComponent -->
<g id="node2" class="node">
<title>LaunchComponent</title>
<polygon fill="#ffffb3" stroke="#000000" points="1391.8146,-122 1268.1854,-122 1268.1854,-86 1391.8146,-86 1391.8146,-122"/>
<text text-anchor="middle" x="1330" y="-99.8" font-family="Times,serif" font-size="14.00" fill="#000000">LaunchComponent</text>
</g>
<!-- LaunchComponent&#45;&gt;MarketingCheckerModule -->
<g id="edge2" class="edge">
<title>LaunchComponent&#45;&gt;MarketingCheckerModule</title>
<path fill="none" stroke="#000000" d="M1330,-122.1061C1330,-141.3391 1330,-169 1330,-169 1330,-169 939.2079,-169 939.2079,-169"/>
<polygon fill="#000000" stroke="#000000" points="939.208,-165.5001 929.2079,-169 939.2079,-172.5001 939.208,-165.5001"/>
</g>
<!-- LaunchDashboardComponent -->
<g id="node3" class="node">
<title>LaunchDashboardComponent</title>
<polygon fill="#ffffb3" stroke="#000000" points="1249.9552,-122 1066.0448,-122 1066.0448,-86 1249.9552,-86 1249.9552,-122"/>
<text text-anchor="middle" x="1158" y="-99.8" font-family="Times,serif" font-size="14.00" fill="#000000">LaunchDashboardComponent</text>
</g>
<!-- LaunchDashboardComponent&#45;&gt;MarketingCheckerModule -->
<g id="edge3" class="edge">
<title>LaunchDashboardComponent&#45;&gt;MarketingCheckerModule</title>
<path fill="none" stroke="#000000" d="M1158,-122.027C1158,-138.3976 1158,-160 1158,-160 1158,-160 939.1184,-160 939.1184,-160"/>
<polygon fill="#000000" stroke="#000000" points="939.1184,-156.5001 929.1184,-160 939.1184,-163.5001 939.1184,-156.5001"/>
</g>
<!-- MarketingCheckerComponent -->
<g id="node4" class="node">
<title>MarketingCheckerComponent</title>
<polygon fill="#ffffb3" stroke="#000000" points="1048.2892,-122 861.7108,-122 861.7108,-86 1048.2892,-86 1048.2892,-122"/>
<text text-anchor="middle" x="955" y="-99.8" font-family="Times,serif" font-size="14.00" fill="#000000">MarketingCheckerComponent</text>
</g>
<!-- MarketingCheckerComponent&#45;&gt;MarketingCheckerModule -->
<g id="edge4" class="edge">
<title>MarketingCheckerComponent&#45;&gt;MarketingCheckerModule</title>
<path fill="none" stroke="#000000" d="M895.5544,-122.1061C895.5544,-122.1061 895.5544,-140.991 895.5544,-140.991"/>
<polygon fill="#000000" stroke="#000000" points="892.0544,-140.9909 895.5544,-150.991 899.0544,-140.991 892.0544,-140.9909"/>
</g>
<!-- RejectTemplateDialogComponent -->
<g id="node5" class="node">
<title>RejectTemplateDialogComponent</title>
<polygon fill="#ffffb3" stroke="#000000" points="844.0646,-122 635.9354,-122 635.9354,-86 844.0646,-86 844.0646,-122"/>
<text text-anchor="middle" x="740" y="-99.8" font-family="Times,serif" font-size="14.00" fill="#000000">RejectTemplateDialogComponent</text>
</g>
<!-- RejectTemplateDialogComponent&#45;&gt;MarketingCheckerModule -->
<g id="edge5" class="edge">
<title>RejectTemplateDialogComponent&#45;&gt;MarketingCheckerModule</title>
<path fill="none" stroke="#000000" d="M804.3896,-122.1061C804.3896,-122.1061 804.3896,-140.991 804.3896,-140.991"/>
<polygon fill="#000000" stroke="#000000" points="800.8896,-140.9909 804.3896,-150.991 807.8896,-140.991 800.8896,-140.9909"/>
</g>
<!-- ViewTemplateHistoryDialogComponent -->
<g id="node6" class="node">
<title>ViewTemplateHistoryDialogComponent</title>
<polygon fill="#ffffb3" stroke="#000000" points="618.1147,-122 373.8853,-122 373.8853,-86 618.1147,-86 618.1147,-122"/>
<text text-anchor="middle" x="496" y="-99.8" font-family="Times,serif" font-size="14.00" fill="#000000">ViewTemplateHistoryDialogComponent</text>
</g>
<!-- ViewTemplateHistoryDialogComponent&#45;&gt;MarketingCheckerModule -->
<g id="edge6" class="edge">
<title>ViewTemplateHistoryDialogComponent&#45;&gt;MarketingCheckerModule</title>
<path fill="none" stroke="#000000" d="M496,-122.027C496,-138.3976 496,-160 496,-160 496,-160 754.7061,-160 754.7061,-160"/>
<polygon fill="#000000" stroke="#000000" points="754.7061,-163.5001 764.7061,-160 754.7061,-156.5001 754.7061,-163.5001"/>
</g>
<!-- MarketingCheckerRoutingModule -->
<g id="node8" class="node">
<title>MarketingCheckerRoutingModule</title>
<polygon fill="#8dd3c7" stroke="#000000" points="349.6245,-122 346.6245,-126 325.6245,-126 322.6245,-122 140.3755,-122 140.3755,-86 349.6245,-86 349.6245,-122"/>
<text text-anchor="middle" x="245" y="-99.8" font-family="Times,serif" font-size="14.00" fill="#000000">MarketingCheckerRoutingModule</text>
</g>
<!-- MarketingCheckerRoutingModule&#45;&gt;MarketingCheckerModule -->
<g id="edge7" class="edge">
<title>MarketingCheckerRoutingModule&#45;&gt;MarketingCheckerModule</title>
<path fill="none" stroke="#000000" d="M245,-122.1061C245,-141.3391 245,-169 245,-169 245,-169 754.8711,-169 754.8711,-169"/>
<polygon fill="#000000" stroke="#000000" points="754.8712,-172.5001 764.8711,-169 754.8711,-165.5001 754.8712,-172.5001"/>
</g>
<!-- SharedModule -->
<g id="node9" class="node">
<title>SharedModule</title>
<polygon fill="#8dd3c7" stroke="#000000" points="122.4231,-122 119.4231,-126 98.4231,-126 95.4231,-122 23.5769,-122 23.5769,-86 122.4231,-86 122.4231,-122"/>
<text text-anchor="middle" x="73" y="-99.8" font-family="Times,serif" font-size="14.00" fill="#000000">SharedModule</text>
</g>
<!-- SharedModule&#45;&gt;MarketingCheckerModule -->
<g id="edge8" class="edge">
<title>SharedModule&#45;&gt;MarketingCheckerModule</title>
<path fill="none" stroke="#000000" d="M73,-122.2921C73,-144.2057 73,-178 73,-178 73,-178 754.9012,-178 754.9012,-178"/>
<polygon fill="#000000" stroke="#000000" points="754.9012,-181.5001 764.9012,-178 754.9012,-174.5001 754.9012,-181.5001"/>
</g>
</g>
</svg>
