<?xml version="1.0" encoding="UTF-8" standalone="no"?>
<!DOCTYPE svg PUBLIC "-//W3C//DTD SVG 1.1//EN"
 "http://www.w3.org/Graphics/SVG/1.1/DTD/svg11.dtd">
<!-- Generated by graphviz version 2.40.1 (20161225.0304)
 -->
<!-- Title: dependencies Pages: 1 -->
<svg width="504pt" height="284pt"
 viewBox="0.00 0.00 504.00 284.00" xmlns="http://www.w3.org/2000/svg" xmlns:xlink="http://www.w3.org/1999/xlink">
<g id="graph0" class="graph" transform="scale(1 1) rotate(0) translate(4 280)">
<title>dependencies</title>
<polygon fill="#ffffff" stroke="transparent" points="-4,4 -4,-280 500,-280 500,4 -4,4"/>
<text text-anchor="start" x="227.0091" y="-42.4" font-family="sans-serif" font-weight="bold" font-size="14.00" fill="#000000">Legend</text>
<polygon fill="#ffffb3" stroke="transparent" points="14,-10 14,-30 34,-30 34,-10 14,-10"/>
<text text-anchor="start" x="37.629" y="-15.4" font-family="sans-serif" font-size="14.00" fill="#000000"> &#160;Declarations</text>
<polygon fill="#8dd3c7" stroke="transparent" points="127,-10 127,-30 147,-30 147,-10 127,-10"/>
<text text-anchor="start" x="150.7251" y="-15.4" font-family="sans-serif" font-size="14.00" fill="#000000"> &#160;Module</text>
<polygon fill="#80b1d3" stroke="transparent" points="213,-10 213,-30 233,-30 233,-10 213,-10"/>
<text text-anchor="start" x="236.7812" y="-15.4" font-family="sans-serif" font-size="14.00" fill="#000000"> &#160;Bootstrap</text>
<polygon fill="#fdb462" stroke="transparent" points="310,-10 310,-30 330,-30 330,-10 310,-10"/>
<text text-anchor="start" x="333.6732" y="-15.4" font-family="sans-serif" font-size="14.00" fill="#000000"> &#160;Providers</text>
<polygon fill="#fb8072" stroke="transparent" points="406,-10 406,-30 426,-30 426,-10 406,-10"/>
<text text-anchor="start" x="429.7258" y="-15.4" font-family="sans-serif" font-size="14.00" fill="#000000"> &#160;Exports</text>
<g id="clust1" class="cluster">
<title>cluster_SharedModule</title>
<polygon fill="none" stroke="#000000" stroke-dasharray="1,5" points="10,-70 10,-268 486,-268 486,-70 10,-70"/>
</g>
<g id="clust2" class="cluster">
<title>cluster_SharedModule_declarations</title>
<polygon fill="none" stroke="#000000" points="22,-78 22,-130 472,-130 472,-78 22,-78"/>
</g>
<g id="clust7" class="cluster">
<title>cluster_SharedModule_exports</title>
<polygon fill="none" stroke="#000000" points="18,-208 18,-260 478,-260 478,-208 18,-208"/>
</g>
<!-- SidenavComponent -->
<g id="node1" class="node">
<title>SidenavComponent</title>
<polygon fill="#ffffb3" stroke="#000000" points="464.4356,-122 337.5644,-122 337.5644,-86 464.4356,-86 464.4356,-122"/>
<text text-anchor="middle" x="401" y="-99.8" font-family="Times,serif" font-size="14.00" fill="#000000">SidenavComponent</text>
</g>
<!-- SharedModule -->
<g id="node4" class="node">
<title>SharedModule</title>
<polygon fill="#8dd3c7" stroke="#000000" points="313.4231,-187 310.4231,-191 289.4231,-191 286.4231,-187 214.5769,-187 214.5769,-151 313.4231,-151 313.4231,-187"/>
<text text-anchor="middle" x="264" y="-164.8" font-family="Times,serif" font-size="14.00" fill="#000000">SharedModule</text>
</g>
<!-- SidenavComponent&#45;&gt;SharedModule -->
<g id="edge1" class="edge">
<title>SidenavComponent&#45;&gt;SharedModule</title>
<path fill="none" stroke="#000000" d="M422.8225,-122.0225C422.8225,-139.3734 422.8225,-163 422.8225,-163 422.8225,-163 323.3818,-163 323.3818,-163"/>
<polygon fill="#000000" stroke="#000000" points="323.3819,-159.5001 313.3818,-163 323.3818,-166.5001 323.3819,-159.5001"/>
</g>
<!-- ToastComponent -->
<g id="node2" class="node">
<title>ToastComponent</title>
<polygon fill="#ffffb3" stroke="#000000" points="320.4356,-122 207.5644,-122 207.5644,-86 320.4356,-86 320.4356,-122"/>
<text text-anchor="middle" x="264" y="-99.8" font-family="Times,serif" font-size="14.00" fill="#000000">ToastComponent</text>
</g>
<!-- ToastComponent&#45;&gt;SharedModule -->
<g id="edge2" class="edge">
<title>ToastComponent&#45;&gt;SharedModule</title>
<path fill="none" stroke="#000000" d="M264,-122.1061C264,-122.1061 264,-140.991 264,-140.991"/>
<polygon fill="#000000" stroke="#000000" points="260.5001,-140.9909 264,-150.991 267.5001,-140.991 260.5001,-140.9909"/>
</g>
<!-- VerticalMenuComponent -->
<g id="node3" class="node">
<title>VerticalMenuComponent</title>
<polygon fill="#ffffb3" stroke="#000000" points="189.5744,-122 30.4256,-122 30.4256,-86 189.5744,-86 189.5744,-122"/>
<text text-anchor="middle" x="110" y="-99.8" font-family="Times,serif" font-size="14.00" fill="#000000">VerticalMenuComponent</text>
</g>
<!-- VerticalMenuComponent&#45;&gt;SharedModule -->
<g id="edge3" class="edge">
<title>VerticalMenuComponent&#45;&gt;SharedModule</title>
<path fill="none" stroke="#000000" d="M135.6791,-122.0225C135.6791,-139.3734 135.6791,-163 135.6791,-163 135.6791,-163 204.7548,-163 204.7548,-163"/>
<polygon fill="#000000" stroke="#000000" points="204.7548,-166.5001 214.7548,-163 204.7547,-159.5001 204.7548,-166.5001"/>
</g>
<!-- SidenavComponent  -->
<g id="node5" class="node">
<title>SidenavComponent </title>
<polygon fill="#fb8072" stroke="#000000" points="469.9348,-252 340.0652,-252 340.0652,-216 469.9348,-216 469.9348,-252"/>
<text text-anchor="middle" x="405" y="-229.8" font-family="Times,serif" font-size="14.00" fill="#000000">SidenavComponent </text>
</g>
<!-- SharedModule&#45;&gt;SidenavComponent  -->
<g id="edge4" class="edge">
<title>SharedModule&#45;&gt;SidenavComponent </title>
<path fill="none" stroke="#000000" stroke-dasharray="5,2" d="M313.4595,-175C345.5516,-175 381.4275,-175 381.4275,-175 381.4275,-175 381.4275,-205.9775 381.4275,-205.9775"/>
<polygon fill="#000000" stroke="#000000" points="377.9276,-205.9774 381.4275,-215.9775 384.9276,-205.9775 377.9276,-205.9774"/>
</g>
<!-- ToastComponent  -->
<g id="node6" class="node">
<title>ToastComponent </title>
<polygon fill="#fb8072" stroke="#000000" points="321.9348,-252 206.0652,-252 206.0652,-216 321.9348,-216 321.9348,-252"/>
<text text-anchor="middle" x="264" y="-229.8" font-family="Times,serif" font-size="14.00" fill="#000000">ToastComponent </text>
</g>
<!-- SharedModule&#45;&gt;ToastComponent  -->
<g id="edge5" class="edge">
<title>SharedModule&#45;&gt;ToastComponent </title>
<path fill="none" stroke="#000000" stroke-dasharray="5,2" d="M264,-187.1061C264,-187.1061 264,-205.991 264,-205.991"/>
<polygon fill="#000000" stroke="#000000" points="260.5001,-205.9909 264,-215.991 267.5001,-205.991 260.5001,-205.9909"/>
</g>
<!-- VerticalMenuComponent  -->
<g id="node7" class="node">
<title>VerticalMenuComponent </title>
<polygon fill="#fb8072" stroke="#000000" points="188.075,-252 25.925,-252 25.925,-216 188.075,-216 188.075,-252"/>
<text text-anchor="middle" x="107" y="-229.8" font-family="Times,serif" font-size="14.00" fill="#000000">VerticalMenuComponent </text>
</g>
<!-- SharedModule&#45;&gt;VerticalMenuComponent  -->
<g id="edge6" class="edge">
<title>SharedModule&#45;&gt;VerticalMenuComponent </title>
<path fill="none" stroke="#000000" stroke-dasharray="5,2" d="M214.5603,-175C160.9906,-175 83.0709,-175 83.0709,-175 83.0709,-175 83.0709,-205.9775 83.0709,-205.9775"/>
<polygon fill="#000000" stroke="#000000" points="79.571,-205.9774 83.0709,-215.9775 86.571,-205.9775 79.571,-205.9774"/>
</g>
</g>
</svg>
