<?xml version="1.0" encoding="UTF-8" standalone="no"?>
<!DOCTYPE svg PUBLIC "-//W3C//DTD SVG 1.1//EN"
 "http://www.w3.org/Graphics/SVG/1.1/DTD/svg11.dtd">
<!-- Generated by graphviz version 2.40.1 (20161225.0304)
 -->
<!-- Title: dependencies Pages: 1 -->
<svg width="1365pt" height="211pt"
 viewBox="0.00 0.00 1365.00 211.00" xmlns="http://www.w3.org/2000/svg" xmlns:xlink="http://www.w3.org/1999/xlink">
<g id="graph0" class="graph" transform="scale(1 1) rotate(0) translate(4 207)">
<title>dependencies</title>
<polygon fill="#ffffff" stroke="transparent" points="-4,4 -4,-207 1361,-207 1361,4 -4,4"/>
<text text-anchor="start" x="657.5091" y="-42.4" font-family="sans-serif" font-weight="bold" font-size="14.00" fill="#000000">Legend</text>
<polygon fill="#ffffb3" stroke="transparent" points="444.5,-10 444.5,-30 464.5,-30 464.5,-10 444.5,-10"/>
<text text-anchor="start" x="468.129" y="-15.4" font-family="sans-serif" font-size="14.00" fill="#000000"> &#160;Declarations</text>
<polygon fill="#8dd3c7" stroke="transparent" points="557.5,-10 557.5,-30 577.5,-30 577.5,-10 557.5,-10"/>
<text text-anchor="start" x="581.2251" y="-15.4" font-family="sans-serif" font-size="14.00" fill="#000000"> &#160;Module</text>
<polygon fill="#80b1d3" stroke="transparent" points="643.5,-10 643.5,-30 663.5,-30 663.5,-10 643.5,-10"/>
<text text-anchor="start" x="667.2812" y="-15.4" font-family="sans-serif" font-size="14.00" fill="#000000"> &#160;Bootstrap</text>
<polygon fill="#fdb462" stroke="transparent" points="740.5,-10 740.5,-30 760.5,-30 760.5,-10 740.5,-10"/>
<text text-anchor="start" x="764.1732" y="-15.4" font-family="sans-serif" font-size="14.00" fill="#000000"> &#160;Providers</text>
<polygon fill="#fb8072" stroke="transparent" points="836.5,-10 836.5,-30 856.5,-30 856.5,-10 836.5,-10"/>
<text text-anchor="start" x="860.2258" y="-15.4" font-family="sans-serif" font-size="14.00" fill="#000000"> &#160;Exports</text>
<g id="clust1" class="cluster">
<title>cluster_MarketingMakerModule</title>
<polygon fill="none" stroke="#000000" stroke-dasharray="1,5" points="8,-70 8,-195 1349,-195 1349,-70 8,-70"/>
</g>
<g id="clust2" class="cluster">
<title>cluster_MarketingMakerModule_declarations</title>
<polygon fill="none" stroke="#000000" points="356,-78 356,-130 1341,-130 1341,-78 356,-78"/>
</g>
<g id="clust8" class="cluster">
<title>cluster_MarketingMakerModule_imports</title>
<polygon fill="none" stroke="#000000" points="16,-78 16,-130 348,-130 348,-78 16,-78"/>
</g>
<!-- DashboardComponent -->
<g id="node1" class="node">
<title>DashboardComponent</title>
<polygon fill="#ffffb3" stroke="#000000" points="1332.9734,-122 1191.0266,-122 1191.0266,-86 1332.9734,-86 1332.9734,-122"/>
<text text-anchor="middle" x="1262" y="-99.8" font-family="Times,serif" font-size="14.00" fill="#000000">DashboardComponent</text>
</g>
<!-- MarketingMakerModule -->
<g id="node6" class="node">
<title>MarketingMakerModule</title>
<polygon fill="#8dd3c7" stroke="#000000" points="759.4003,-187 756.4003,-191 735.4003,-191 732.4003,-187 604.5997,-187 604.5997,-151 759.4003,-151 759.4003,-187"/>
<text text-anchor="middle" x="682" y="-164.8" font-family="Times,serif" font-size="14.00" fill="#000000">MarketingMakerModule</text>
</g>
<!-- DashboardComponent&#45;&gt;MarketingMakerModule -->
<g id="edge1" class="edge">
<title>DashboardComponent&#45;&gt;MarketingMakerModule</title>
<path fill="none" stroke="#000000" d="M1262,-122.2921C1262,-144.2057 1262,-178 1262,-178 1262,-178 769.3193,-178 769.3193,-178"/>
<polygon fill="#000000" stroke="#000000" points="769.3193,-174.5001 759.3193,-178 769.3193,-181.5001 769.3193,-174.5001"/>
</g>
<!-- MarketingMakerComponent -->
<g id="node2" class="node">
<title>MarketingMakerComponent</title>
<polygon fill="#ffffb3" stroke="#000000" points="1173.1825,-122 996.8175,-122 996.8175,-86 1173.1825,-86 1173.1825,-122"/>
<text text-anchor="middle" x="1085" y="-99.8" font-family="Times,serif" font-size="14.00" fill="#000000">MarketingMakerComponent</text>
</g>
<!-- MarketingMakerComponent&#45;&gt;MarketingMakerModule -->
<g id="edge2" class="edge">
<title>MarketingMakerComponent&#45;&gt;MarketingMakerModule</title>
<path fill="none" stroke="#000000" d="M1085,-122.1061C1085,-141.3391 1085,-169 1085,-169 1085,-169 769.2256,-169 769.2256,-169"/>
<polygon fill="#000000" stroke="#000000" points="769.2257,-165.5001 759.2256,-169 769.2256,-172.5001 769.2257,-165.5001"/>
</g>
<!-- MessageTemplateComponent -->
<g id="node3" class="node">
<title>MessageTemplateComponent</title>
<polygon fill="#ffffb3" stroke="#000000" points="978.6783,-122 795.3217,-122 795.3217,-86 978.6783,-86 978.6783,-122"/>
<text text-anchor="middle" x="887" y="-99.8" font-family="Times,serif" font-size="14.00" fill="#000000">MessageTemplateComponent</text>
</g>
<!-- MessageTemplateComponent&#45;&gt;MarketingMakerModule -->
<g id="edge3" class="edge">
<title>MessageTemplateComponent&#45;&gt;MarketingMakerModule</title>
<path fill="none" stroke="#000000" d="M887,-122.027C887,-138.3976 887,-160 887,-160 887,-160 769.2096,-160 769.2096,-160"/>
<polygon fill="#000000" stroke="#000000" points="769.2096,-156.5001 759.2096,-160 769.2096,-163.5001 769.2096,-156.5001"/>
</g>
<!-- PreApprovedOffersComponent -->
<g id="node4" class="node">
<title>PreApprovedOffersComponent</title>
<polygon fill="#ffffb3" stroke="#000000" points="777.7198,-122 586.2802,-122 586.2802,-86 777.7198,-86 777.7198,-122"/>
<text text-anchor="middle" x="682" y="-99.8" font-family="Times,serif" font-size="14.00" fill="#000000">PreApprovedOffersComponent</text>
</g>
<!-- PreApprovedOffersComponent&#45;&gt;MarketingMakerModule -->
<g id="edge4" class="edge">
<title>PreApprovedOffersComponent&#45;&gt;MarketingMakerModule</title>
<path fill="none" stroke="#000000" d="M682,-122.1061C682,-122.1061 682,-140.991 682,-140.991"/>
<polygon fill="#000000" stroke="#000000" points="678.5001,-140.9909 682,-150.991 685.5001,-140.991 678.5001,-140.9909"/>
</g>
<!-- PromotionalTemplateComponent -->
<g id="node5" class="node">
<title>PromotionalTemplateComponent</title>
<polygon fill="#ffffb3" stroke="#000000" points="567.9212,-122 364.0788,-122 364.0788,-86 567.9212,-86 567.9212,-122"/>
<text text-anchor="middle" x="466" y="-99.8" font-family="Times,serif" font-size="14.00" fill="#000000">PromotionalTemplateComponent</text>
</g>
<!-- PromotionalTemplateComponent&#45;&gt;MarketingMakerModule -->
<g id="edge5" class="edge">
<title>PromotionalTemplateComponent&#45;&gt;MarketingMakerModule</title>
<path fill="none" stroke="#000000" d="M466,-122.027C466,-138.3976 466,-160 466,-160 466,-160 594.6291,-160 594.6291,-160"/>
<polygon fill="#000000" stroke="#000000" points="594.6292,-163.5001 604.6291,-160 594.6291,-156.5001 594.6292,-163.5001"/>
</g>
<!-- MarketingMakerRoutingModule -->
<g id="node7" class="node">
<title>MarketingMakerRoutingModule</title>
<polygon fill="#8dd3c7" stroke="#000000" points="339.5182,-122 336.5182,-126 315.5182,-126 312.5182,-122 140.4818,-122 140.4818,-86 339.5182,-86 339.5182,-122"/>
<text text-anchor="middle" x="240" y="-99.8" font-family="Times,serif" font-size="14.00" fill="#000000">MarketingMakerRoutingModule</text>
</g>
<!-- MarketingMakerRoutingModule&#45;&gt;MarketingMakerModule -->
<g id="edge6" class="edge">
<title>MarketingMakerRoutingModule&#45;&gt;MarketingMakerModule</title>
<path fill="none" stroke="#000000" d="M240,-122.1061C240,-141.3391 240,-169 240,-169 240,-169 594.7567,-169 594.7567,-169"/>
<polygon fill="#000000" stroke="#000000" points="594.7568,-172.5001 604.7567,-169 594.7567,-165.5001 594.7568,-172.5001"/>
</g>
<!-- SharedModule -->
<g id="node8" class="node">
<title>SharedModule</title>
<polygon fill="#8dd3c7" stroke="#000000" points="122.4231,-122 119.4231,-126 98.4231,-126 95.4231,-122 23.5769,-122 23.5769,-86 122.4231,-86 122.4231,-122"/>
<text text-anchor="middle" x="73" y="-99.8" font-family="Times,serif" font-size="14.00" fill="#000000">SharedModule</text>
</g>
<!-- SharedModule&#45;&gt;MarketingMakerModule -->
<g id="edge7" class="edge">
<title>SharedModule&#45;&gt;MarketingMakerModule</title>
<path fill="none" stroke="#000000" d="M73,-122.2921C73,-144.2057 73,-178 73,-178 73,-178 594.5607,-178 594.5607,-178"/>
<polygon fill="#000000" stroke="#000000" points="594.5607,-181.5001 604.5607,-178 594.5606,-174.5001 594.5607,-181.5001"/>
</g>
</g>
</svg>
