<?xml version="1.0" encoding="UTF-8" standalone="no"?>
<!DOCTYPE svg PUBLIC "-//W3C//DTD SVG 1.1//EN"
 "http://www.w3.org/Graphics/SVG/1.1/DTD/svg11.dtd">
<!-- Generated by graphviz version 2.40.1 (20161225.0304)
 -->
<!-- Title: dependencies Pages: 1 -->
<svg width="906pt" height="211pt"
 viewBox="0.00 0.00 906.00 211.00" xmlns="http://www.w3.org/2000/svg" xmlns:xlink="http://www.w3.org/1999/xlink">
<g id="graph0" class="graph" transform="scale(1 1) rotate(0) translate(4 207)">
<title>dependencies</title>
<polygon fill="#ffffff" stroke="transparent" points="-4,4 -4,-207 902,-207 902,4 -4,4"/>
<text text-anchor="start" x="428.0091" y="-42.4" font-family="sans-serif" font-weight="bold" font-size="14.00" fill="#000000">Legend</text>
<polygon fill="#ffffb3" stroke="transparent" points="215,-10 215,-30 235,-30 235,-10 215,-10"/>
<text text-anchor="start" x="238.629" y="-15.4" font-family="sans-serif" font-size="14.00" fill="#000000"> &#160;Declarations</text>
<polygon fill="#8dd3c7" stroke="transparent" points="328,-10 328,-30 348,-30 348,-10 328,-10"/>
<text text-anchor="start" x="351.7251" y="-15.4" font-family="sans-serif" font-size="14.00" fill="#000000"> &#160;Module</text>
<polygon fill="#80b1d3" stroke="transparent" points="414,-10 414,-30 434,-30 434,-10 414,-10"/>
<text text-anchor="start" x="437.7812" y="-15.4" font-family="sans-serif" font-size="14.00" fill="#000000"> &#160;Bootstrap</text>
<polygon fill="#fdb462" stroke="transparent" points="511,-10 511,-30 531,-30 531,-10 511,-10"/>
<text text-anchor="start" x="534.6732" y="-15.4" font-family="sans-serif" font-size="14.00" fill="#000000"> &#160;Providers</text>
<polygon fill="#fb8072" stroke="transparent" points="607,-10 607,-30 627,-30 627,-10 607,-10"/>
<text text-anchor="start" x="630.7258" y="-15.4" font-family="sans-serif" font-size="14.00" fill="#000000"> &#160;Exports</text>
<g id="clust1" class="cluster">
<title>cluster_ManageUsersModule</title>
<polygon fill="none" stroke="#000000" stroke-dasharray="1,5" points="8,-70 8,-195 890,-195 890,-70 8,-70"/>
</g>
<g id="clust2" class="cluster">
<title>cluster_ManageUsersModule_declarations</title>
<polygon fill="none" stroke="#000000" points="338,-78 338,-130 882,-130 882,-78 338,-78"/>
</g>
<g id="clust6" class="cluster">
<title>cluster_ManageUsersModule_imports</title>
<polygon fill="none" stroke="#000000" points="16,-78 16,-130 330,-130 330,-78 16,-78"/>
</g>
<!-- DisableUserDialogComponent -->
<g id="node1" class="node">
<title>DisableUserDialogComponent</title>
<polygon fill="#ffffb3" stroke="#000000" points="874.1232,-122 685.8768,-122 685.8768,-86 874.1232,-86 874.1232,-122"/>
<text text-anchor="middle" x="780" y="-99.8" font-family="Times,serif" font-size="14.00" fill="#000000">DisableUserDialogComponent</text>
</g>
<!-- ManageUsersModule -->
<g id="node4" class="node">
<title>ManageUsersModule</title>
<polygon fill="#8dd3c7" stroke="#000000" points="487.0101,-187 484.0101,-191 463.0101,-191 460.0101,-187 350.9899,-187 350.9899,-151 487.0101,-151 487.0101,-187"/>
<text text-anchor="middle" x="419" y="-164.8" font-family="Times,serif" font-size="14.00" fill="#000000">ManageUsersModule</text>
</g>
<!-- DisableUserDialogComponent&#45;&gt;ManageUsersModule -->
<g id="edge1" class="edge">
<title>DisableUserDialogComponent&#45;&gt;ManageUsersModule</title>
<path fill="none" stroke="#000000" d="M780,-122.2843C780,-143.3211 780,-175 780,-175 780,-175 497.3257,-175 497.3257,-175"/>
<polygon fill="#000000" stroke="#000000" points="497.3258,-171.5001 487.3257,-175 497.3257,-178.5001 497.3258,-171.5001"/>
</g>
<!-- ManageUsersComponent -->
<g id="node2" class="node">
<title>ManageUsersComponent</title>
<polygon fill="#ffffb3" stroke="#000000" points="668.2921,-122 509.7079,-122 509.7079,-86 668.2921,-86 668.2921,-122"/>
<text text-anchor="middle" x="589" y="-99.8" font-family="Times,serif" font-size="14.00" fill="#000000">ManageUsersComponent</text>
</g>
<!-- ManageUsersComponent&#45;&gt;ManageUsersModule -->
<g id="edge2" class="edge">
<title>ManageUsersComponent&#45;&gt;ManageUsersModule</title>
<path fill="none" stroke="#000000" d="M589,-122.0225C589,-139.3734 589,-163 589,-163 589,-163 497.166,-163 497.166,-163"/>
<polygon fill="#000000" stroke="#000000" points="497.166,-159.5001 487.166,-163 497.1659,-166.5001 497.166,-159.5001"/>
</g>
<!-- UserDialogComponent -->
<g id="node3" class="node">
<title>UserDialogComponent</title>
<polygon fill="#ffffb3" stroke="#000000" points="491.8613,-122 346.1387,-122 346.1387,-86 491.8613,-86 491.8613,-122"/>
<text text-anchor="middle" x="419" y="-99.8" font-family="Times,serif" font-size="14.00" fill="#000000">UserDialogComponent</text>
</g>
<!-- UserDialogComponent&#45;&gt;ManageUsersModule -->
<g id="edge3" class="edge">
<title>UserDialogComponent&#45;&gt;ManageUsersModule</title>
<path fill="none" stroke="#000000" d="M419,-122.1061C419,-122.1061 419,-140.991 419,-140.991"/>
<polygon fill="#000000" stroke="#000000" points="415.5001,-140.9909 419,-150.991 422.5001,-140.991 415.5001,-140.9909"/>
</g>
<!-- ManageUsersRoutingModule -->
<g id="node5" class="node">
<title>ManageUsersRoutingModule</title>
<polygon fill="#8dd3c7" stroke="#000000" points="321.6274,-122 318.6274,-126 297.6274,-126 294.6274,-122 140.3726,-122 140.3726,-86 321.6274,-86 321.6274,-122"/>
<text text-anchor="middle" x="231" y="-99.8" font-family="Times,serif" font-size="14.00" fill="#000000">ManageUsersRoutingModule</text>
</g>
<!-- ManageUsersRoutingModule&#45;&gt;ManageUsersModule -->
<g id="edge4" class="edge">
<title>ManageUsersRoutingModule&#45;&gt;ManageUsersModule</title>
<path fill="none" stroke="#000000" d="M231,-122.0225C231,-139.3734 231,-163 231,-163 231,-163 340.8619,-163 340.8619,-163"/>
<polygon fill="#000000" stroke="#000000" points="340.8619,-166.5001 350.8619,-163 340.8618,-159.5001 340.8619,-166.5001"/>
</g>
<!-- SharedModule -->
<g id="node6" class="node">
<title>SharedModule</title>
<polygon fill="#8dd3c7" stroke="#000000" points="122.4231,-122 119.4231,-126 98.4231,-126 95.4231,-122 23.5769,-122 23.5769,-86 122.4231,-86 122.4231,-122"/>
<text text-anchor="middle" x="73" y="-99.8" font-family="Times,serif" font-size="14.00" fill="#000000">SharedModule</text>
</g>
<!-- SharedModule&#45;&gt;ManageUsersModule -->
<g id="edge5" class="edge">
<title>SharedModule&#45;&gt;ManageUsersModule</title>
<path fill="none" stroke="#000000" d="M73,-122.2843C73,-143.3211 73,-175 73,-175 73,-175 340.6415,-175 340.6415,-175"/>
<polygon fill="#000000" stroke="#000000" points="340.6416,-178.5001 350.6415,-175 340.6415,-171.5001 340.6416,-178.5001"/>
</g>
</g>
</svg>
