<?xml version="1.0" encoding="UTF-8" standalone="no"?>
<!DOCTYPE svg PUBLIC "-//W3C//DTD SVG 1.1//EN"
 "http://www.w3.org/Graphics/SVG/1.1/DTD/svg11.dtd">
<!-- Generated by graphviz version 2.40.1 (20161225.0304)
 -->
<!-- Title: dependencies Pages: 1 -->
<svg width="721pt" height="211pt"
 viewBox="0.00 0.00 721.00 211.00" xmlns="http://www.w3.org/2000/svg" xmlns:xlink="http://www.w3.org/1999/xlink">
<g id="graph0" class="graph" transform="scale(1 1) rotate(0) translate(4 207)">
<title>dependencies</title>
<polygon fill="#ffffff" stroke="transparent" points="-4,4 -4,-207 717,-207 717,4 -4,4"/>
<text text-anchor="start" x="335.5091" y="-42.4" font-family="sans-serif" font-weight="bold" font-size="14.00" fill="#000000">Legend</text>
<polygon fill="#ffffb3" stroke="transparent" points="122.5,-10 122.5,-30 142.5,-30 142.5,-10 122.5,-10"/>
<text text-anchor="start" x="146.129" y="-15.4" font-family="sans-serif" font-size="14.00" fill="#000000"> &#160;Declarations</text>
<polygon fill="#8dd3c7" stroke="transparent" points="235.5,-10 235.5,-30 255.5,-30 255.5,-10 235.5,-10"/>
<text text-anchor="start" x="259.2251" y="-15.4" font-family="sans-serif" font-size="14.00" fill="#000000"> &#160;Module</text>
<polygon fill="#80b1d3" stroke="transparent" points="321.5,-10 321.5,-30 341.5,-30 341.5,-10 321.5,-10"/>
<text text-anchor="start" x="345.2812" y="-15.4" font-family="sans-serif" font-size="14.00" fill="#000000"> &#160;Bootstrap</text>
<polygon fill="#fdb462" stroke="transparent" points="418.5,-10 418.5,-30 438.5,-30 438.5,-10 418.5,-10"/>
<text text-anchor="start" x="442.1732" y="-15.4" font-family="sans-serif" font-size="14.00" fill="#000000"> &#160;Providers</text>
<polygon fill="#fb8072" stroke="transparent" points="514.5,-10 514.5,-30 534.5,-30 534.5,-10 514.5,-10"/>
<text text-anchor="start" x="538.2258" y="-15.4" font-family="sans-serif" font-size="14.00" fill="#000000"> &#160;Exports</text>
<g id="clust1" class="cluster">
<title>cluster_WhatsappModule</title>
<polygon fill="none" stroke="#000000" stroke-dasharray="1,5" points="8,-70 8,-195 705,-195 705,-70 8,-70"/>
</g>
<g id="clust2" class="cluster">
<title>cluster_WhatsappModule_declarations</title>
<polygon fill="none" stroke="#000000" points="317,-78 317,-130 697,-130 697,-78 317,-78"/>
</g>
<g id="clust5" class="cluster">
<title>cluster_WhatsappModule_imports</title>
<polygon fill="none" stroke="#000000" points="16,-78 16,-130 309,-130 309,-78 16,-78"/>
</g>
<!-- BlockWhatsappDialogComponent -->
<g id="node1" class="node">
<title>BlockWhatsappDialogComponent</title>
<polygon fill="#ffffb3" stroke="#000000" points="689.3556,-122 480.6444,-122 480.6444,-86 689.3556,-86 689.3556,-122"/>
<text text-anchor="middle" x="585" y="-99.8" font-family="Times,serif" font-size="14.00" fill="#000000">BlockWhatsappDialogComponent</text>
</g>
<!-- WhatsappModule -->
<g id="node3" class="node">
<title>WhatsappModule</title>
<polygon fill="#8dd3c7" stroke="#000000" points="380.5298,-187 377.5298,-191 356.5298,-191 353.5298,-187 265.4702,-187 265.4702,-151 380.5298,-151 380.5298,-187"/>
<text text-anchor="middle" x="323" y="-164.8" font-family="Times,serif" font-size="14.00" fill="#000000">WhatsappModule</text>
</g>
<!-- BlockWhatsappDialogComponent&#45;&gt;WhatsappModule -->
<g id="edge1" class="edge">
<title>BlockWhatsappDialogComponent&#45;&gt;WhatsappModule</title>
<path fill="none" stroke="#000000" d="M585,-122.1061C585,-141.3391 585,-169 585,-169 585,-169 390.8214,-169 390.8214,-169"/>
<polygon fill="#000000" stroke="#000000" points="390.8214,-165.5001 380.8214,-169 390.8213,-172.5001 390.8214,-165.5001"/>
</g>
<!-- WhatsappComponent -->
<g id="node2" class="node">
<title>WhatsappComponent</title>
<polygon fill="#ffffb3" stroke="#000000" points="462.8118,-122 325.1882,-122 325.1882,-86 462.8118,-86 462.8118,-122"/>
<text text-anchor="middle" x="394" y="-99.8" font-family="Times,serif" font-size="14.00" fill="#000000">WhatsappComponent</text>
</g>
<!-- WhatsappComponent&#45;&gt;WhatsappModule -->
<g id="edge2" class="edge">
<title>WhatsappComponent&#45;&gt;WhatsappModule</title>
<path fill="none" stroke="#000000" d="M353.0544,-122.1061C353.0544,-122.1061 353.0544,-140.991 353.0544,-140.991"/>
<polygon fill="#000000" stroke="#000000" points="349.5544,-140.9909 353.0544,-150.991 356.5544,-140.991 349.5544,-140.9909"/>
</g>
<!-- SharedModule -->
<g id="node4" class="node">
<title>SharedModule</title>
<polygon fill="#8dd3c7" stroke="#000000" points="301.4231,-122 298.4231,-126 277.4231,-126 274.4231,-122 202.5769,-122 202.5769,-86 301.4231,-86 301.4231,-122"/>
<text text-anchor="middle" x="252" y="-99.8" font-family="Times,serif" font-size="14.00" fill="#000000">SharedModule</text>
</g>
<!-- SharedModule&#45;&gt;WhatsappModule -->
<g id="edge3" class="edge">
<title>SharedModule&#45;&gt;WhatsappModule</title>
<path fill="none" stroke="#000000" d="M283.2234,-122.1061C283.2234,-122.1061 283.2234,-140.991 283.2234,-140.991"/>
<polygon fill="#000000" stroke="#000000" points="279.7234,-140.9909 283.2234,-150.991 286.7234,-140.991 279.7234,-140.9909"/>
</g>
<!-- WhatsappRoutingModule -->
<g id="node5" class="node">
<title>WhatsappRoutingModule</title>
<polygon fill="#8dd3c7" stroke="#000000" points="184.147,-122 181.147,-126 160.147,-126 157.147,-122 23.853,-122 23.853,-86 184.147,-86 184.147,-122"/>
<text text-anchor="middle" x="104" y="-99.8" font-family="Times,serif" font-size="14.00" fill="#000000">WhatsappRoutingModule</text>
</g>
<!-- WhatsappRoutingModule&#45;&gt;WhatsappModule -->
<g id="edge4" class="edge">
<title>WhatsappRoutingModule&#45;&gt;WhatsappModule</title>
<path fill="none" stroke="#000000" d="M104,-122.1061C104,-141.3391 104,-169 104,-169 104,-169 255.4603,-169 255.4603,-169"/>
<polygon fill="#000000" stroke="#000000" points="255.4604,-172.5001 265.4603,-169 255.4603,-165.5001 255.4604,-172.5001"/>
</g>
</g>
</svg>
