<?xml version="1.0" encoding="UTF-8" standalone="no"?>
<!DOCTYPE svg PUBLIC "-//W3C//DTD SVG 1.1//EN"
 "http://www.w3.org/Graphics/SVG/1.1/DTD/svg11.dtd">
<!-- Generated by graphviz version 2.40.1 (20161225.0304)
 -->
<!-- Title: dependencies Pages: 1 -->
<svg width="1246pt" height="284pt"
 viewBox="0.00 0.00 1246.00 284.00" xmlns="http://www.w3.org/2000/svg" xmlns:xlink="http://www.w3.org/1999/xlink">
<g id="graph0" class="graph" transform="scale(1 1) rotate(0) translate(4 280)">
<title>dependencies</title>
<polygon fill="#ffffff" stroke="transparent" points="-4,4 -4,-280 1242,-280 1242,4 -4,4"/>
<text text-anchor="start" x="598.0091" y="-42.4" font-family="sans-serif" font-weight="bold" font-size="14.00" fill="#000000">Legend</text>
<polygon fill="#ffffb3" stroke="transparent" points="385,-10 385,-30 405,-30 405,-10 385,-10"/>
<text text-anchor="start" x="408.629" y="-15.4" font-family="sans-serif" font-size="14.00" fill="#000000"> &#160;Declarations</text>
<polygon fill="#8dd3c7" stroke="transparent" points="498,-10 498,-30 518,-30 518,-10 498,-10"/>
<text text-anchor="start" x="521.7251" y="-15.4" font-family="sans-serif" font-size="14.00" fill="#000000"> &#160;Module</text>
<polygon fill="#80b1d3" stroke="transparent" points="584,-10 584,-30 604,-30 604,-10 584,-10"/>
<text text-anchor="start" x="607.7812" y="-15.4" font-family="sans-serif" font-size="14.00" fill="#000000"> &#160;Bootstrap</text>
<polygon fill="#fdb462" stroke="transparent" points="681,-10 681,-30 701,-30 701,-10 681,-10"/>
<text text-anchor="start" x="704.6732" y="-15.4" font-family="sans-serif" font-size="14.00" fill="#000000"> &#160;Providers</text>
<polygon fill="#fb8072" stroke="transparent" points="777,-10 777,-30 797,-30 797,-10 777,-10"/>
<text text-anchor="start" x="800.7258" y="-15.4" font-family="sans-serif" font-size="14.00" fill="#000000"> &#160;Exports</text>
<g id="clust1" class="cluster">
<title>cluster_AppModule</title>
<polygon fill="none" stroke="#000000" stroke-dasharray="1,5" points="8,-70 8,-268 1230,-268 1230,-70 8,-70"/>
</g>
<g id="clust2" class="cluster">
<title>cluster_AppModule_declarations</title>
<polygon fill="none" stroke="#000000" points="415,-78 415,-130 1222,-130 1222,-78 415,-78"/>
</g>
<g id="clust8" class="cluster">
<title>cluster_AppModule_imports</title>
<polygon fill="none" stroke="#000000" points="146,-78 146,-130 407,-130 407,-78 146,-78"/>
</g>
<g id="clust10" class="cluster">
<title>cluster_AppModule_bootstrap</title>
<polygon fill="none" stroke="#000000" points="526,-208 526,-260 650,-260 650,-208 526,-208"/>
</g>
<g id="clust11" class="cluster">
<title>cluster_AppModule_providers</title>
<polygon fill="none" stroke="#000000" points="16,-78 16,-130 138,-130 138,-78 16,-78"/>
</g>
<!-- AppComponent -->
<g id="node1" class="node">
<title>AppComponent</title>
<polygon fill="#ffffb3" stroke="#000000" points="1213.9399,-122 1108.0601,-122 1108.0601,-86 1213.9399,-86 1213.9399,-122"/>
<text text-anchor="middle" x="1161" y="-99.8" font-family="Times,serif" font-size="14.00" fill="#000000">AppComponent</text>
</g>
<!-- AppModule -->
<g id="node6" class="node">
<title>AppModule</title>
<polygon fill="#8dd3c7" stroke="#000000" points="629.6571,-187 626.6571,-191 605.6571,-191 602.6571,-187 546.3429,-187 546.3429,-151 629.6571,-151 629.6571,-187"/>
<text text-anchor="middle" x="588" y="-164.8" font-family="Times,serif" font-size="14.00" fill="#000000">AppModule</text>
</g>
<!-- AppComponent&#45;&gt;AppModule -->
<g id="edge1" class="edge">
<title>AppComponent&#45;&gt;AppModule</title>
<path fill="none" stroke="#000000" d="M1161,-122.2921C1161,-144.2057 1161,-178 1161,-178 1161,-178 639.6703,-178 639.6703,-178"/>
<polygon fill="#000000" stroke="#000000" points="639.6703,-174.5001 629.6703,-178 639.6703,-181.5001 639.6703,-174.5001"/>
</g>
<!-- ChangePasswordComponent -->
<g id="node2" class="node">
<title>ChangePasswordComponent</title>
<polygon fill="#ffffb3" stroke="#000000" points="1089.752,-122 912.248,-122 912.248,-86 1089.752,-86 1089.752,-122"/>
<text text-anchor="middle" x="1001" y="-99.8" font-family="Times,serif" font-size="14.00" fill="#000000">ChangePasswordComponent</text>
</g>
<!-- ChangePasswordComponent&#45;&gt;AppModule -->
<g id="edge2" class="edge">
<title>ChangePasswordComponent&#45;&gt;AppModule</title>
<path fill="none" stroke="#000000" d="M1001,-122.1061C1001,-141.3391 1001,-169 1001,-169 1001,-169 639.8735,-169 639.8735,-169"/>
<polygon fill="#000000" stroke="#000000" points="639.8735,-165.5001 629.8735,-169 639.8734,-172.5001 639.8735,-165.5001"/>
</g>
<!-- LoginComponent -->
<g id="node3" class="node">
<title>LoginComponent</title>
<polygon fill="#ffffb3" stroke="#000000" points="894.2758,-122 779.7242,-122 779.7242,-86 894.2758,-86 894.2758,-122"/>
<text text-anchor="middle" x="837" y="-99.8" font-family="Times,serif" font-size="14.00" fill="#000000">LoginComponent</text>
</g>
<!-- LoginComponent&#45;&gt;AppModule -->
<g id="edge3" class="edge">
<title>LoginComponent&#45;&gt;AppModule</title>
<path fill="none" stroke="#000000" d="M837,-122.027C837,-138.3976 837,-160 837,-160 837,-160 639.677,-160 639.677,-160"/>
<polygon fill="#000000" stroke="#000000" points="639.677,-156.5001 629.677,-160 639.677,-163.5001 639.677,-156.5001"/>
</g>
<!-- ProtectedHomeComponent -->
<g id="node4" class="node">
<title>ProtectedHomeComponent</title>
<polygon fill="#ffffb3" stroke="#000000" points="761.4129,-122 592.5871,-122 592.5871,-86 761.4129,-86 761.4129,-122"/>
<text text-anchor="middle" x="677" y="-99.8" font-family="Times,serif" font-size="14.00" fill="#000000">ProtectedHomeComponent</text>
</g>
<!-- ProtectedHomeComponent&#45;&gt;AppModule -->
<g id="edge4" class="edge">
<title>ProtectedHomeComponent&#45;&gt;AppModule</title>
<path fill="none" stroke="#000000" d="M611.311,-122.1061C611.311,-122.1061 611.311,-140.991 611.311,-140.991"/>
<polygon fill="#000000" stroke="#000000" points="607.8111,-140.9909 611.311,-150.991 614.8111,-140.991 607.8111,-140.9909"/>
</g>
<!-- PublicHomeComponent -->
<g id="node5" class="node">
<title>PublicHomeComponent</title>
<polygon fill="#ffffb3" stroke="#000000" points="574.8229,-122 423.1771,-122 423.1771,-86 574.8229,-86 574.8229,-122"/>
<text text-anchor="middle" x="499" y="-99.8" font-family="Times,serif" font-size="14.00" fill="#000000">PublicHomeComponent</text>
</g>
<!-- PublicHomeComponent&#45;&gt;AppModule -->
<g id="edge5" class="edge">
<title>PublicHomeComponent&#45;&gt;AppModule</title>
<path fill="none" stroke="#000000" d="M560.4166,-122.1061C560.4166,-122.1061 560.4166,-140.991 560.4166,-140.991"/>
<polygon fill="#000000" stroke="#000000" points="556.9166,-140.9909 560.4166,-150.991 563.9166,-140.991 556.9166,-140.9909"/>
</g>
<!-- AppComponent  -->
<g id="node9" class="node">
<title>AppComponent </title>
<polygon fill="#80b1d3" stroke="#000000" points="642.439,-252 533.561,-252 533.561,-216 642.439,-216 642.439,-252"/>
<text text-anchor="middle" x="588" y="-229.8" font-family="Times,serif" font-size="14.00" fill="#000000">AppComponent </text>
</g>
<!-- AppModule&#45;&gt;AppComponent  -->
<g id="edge8" class="edge">
<title>AppModule&#45;&gt;AppComponent </title>
<path fill="none" stroke="#000000" stroke-dasharray="1,5" d="M588,-187.1061C588,-187.1061 588,-205.991 588,-205.991"/>
<polygon fill="#000000" stroke="#000000" points="584.5001,-205.9909 588,-215.991 591.5001,-205.991 584.5001,-205.9909"/>
</g>
<!-- AppRoutingModule -->
<g id="node7" class="node">
<title>AppRoutingModule</title>
<polygon fill="#8dd3c7" stroke="#000000" points="399.2744,-122 396.2744,-126 375.2744,-126 372.2744,-122 270.7256,-122 270.7256,-86 399.2744,-86 399.2744,-122"/>
<text text-anchor="middle" x="335" y="-99.8" font-family="Times,serif" font-size="14.00" fill="#000000">AppRoutingModule</text>
</g>
<!-- AppRoutingModule&#45;&gt;AppModule -->
<g id="edge6" class="edge">
<title>AppRoutingModule&#45;&gt;AppModule</title>
<path fill="none" stroke="#000000" d="M335,-122.027C335,-138.3976 335,-160 335,-160 335,-160 536.2222,-160 536.2222,-160"/>
<polygon fill="#000000" stroke="#000000" points="536.2222,-163.5001 546.2222,-160 536.2222,-156.5001 536.2222,-163.5001"/>
</g>
<!-- SharedModule -->
<g id="node8" class="node">
<title>SharedModule</title>
<polygon fill="#8dd3c7" stroke="#000000" points="252.4231,-122 249.4231,-126 228.4231,-126 225.4231,-122 153.5769,-122 153.5769,-86 252.4231,-86 252.4231,-122"/>
<text text-anchor="middle" x="203" y="-99.8" font-family="Times,serif" font-size="14.00" fill="#000000">SharedModule</text>
</g>
<!-- SharedModule&#45;&gt;AppModule -->
<g id="edge7" class="edge">
<title>SharedModule&#45;&gt;AppModule</title>
<path fill="none" stroke="#000000" d="M203,-122.1061C203,-141.3391 203,-169 203,-169 203,-169 536.0654,-169 536.0654,-169"/>
<polygon fill="#000000" stroke="#000000" points="536.0654,-172.5001 546.0654,-169 536.0653,-165.5001 536.0654,-172.5001"/>
</g>
<!-- Interceptor -->
<g id="node10" class="node">
<title>Interceptor</title>
<ellipse fill="#fdb462" stroke="#000000" cx="77" cy="-104" rx="53.2878" ry="18"/>
<text text-anchor="middle" x="77" y="-99.8" font-family="Times,serif" font-size="14.00" fill="#000000">Interceptor</text>
</g>
<!-- Interceptor&#45;&gt;AppModule -->
<g id="edge9" class="edge">
<title>Interceptor&#45;&gt;AppModule</title>
<path fill="none" stroke="#000000" d="M77,-122.2921C77,-144.2057 77,-178 77,-178 77,-178 536.1827,-178 536.1827,-178"/>
<polygon fill="#000000" stroke="#000000" points="536.1828,-181.5001 546.1827,-178 536.1827,-174.5001 536.1828,-181.5001"/>
</g>
</g>
</svg>
