<?xml version="1.0" encoding="UTF-8" standalone="no"?>
<!DOCTYPE svg PUBLIC "-//W3C//DTD SVG 1.1//EN"
 "http://www.w3.org/Graphics/SVG/1.1/DTD/svg11.dtd">
<!-- Generated by graphviz version 2.40.1 (20161225.0304)
 -->
<!-- Title: dependencies Pages: 1 -->
<svg width="6714pt" height="290pt"
 viewBox="0.00 0.00 6714.00 290.00" xmlns="http://www.w3.org/2000/svg" xmlns:xlink="http://www.w3.org/1999/xlink">
<g id="graph0" class="graph" transform="scale(1 1) rotate(0) translate(4 286)">
<title>dependencies</title>
<polygon fill="#ffffff" stroke="transparent" points="-4,4 -4,-286 6710,-286 6710,4 -4,4"/>
<text text-anchor="start" x="3332.0091" y="-42.4" font-family="sans-serif" font-weight="bold" font-size="14.00" fill="#000000">Legend</text>
<polygon fill="#ffffb3" stroke="transparent" points="3119,-10 3119,-30 3139,-30 3139,-10 3119,-10"/>
<text text-anchor="start" x="3142.629" y="-15.4" font-family="sans-serif" font-size="14.00" fill="#000000"> &#160;Declarations</text>
<polygon fill="#8dd3c7" stroke="transparent" points="3232,-10 3232,-30 3252,-30 3252,-10 3232,-10"/>
<text text-anchor="start" x="3255.7251" y="-15.4" font-family="sans-serif" font-size="14.00" fill="#000000"> &#160;Module</text>
<polygon fill="#80b1d3" stroke="transparent" points="3318,-10 3318,-30 3338,-30 3338,-10 3318,-10"/>
<text text-anchor="start" x="3341.7812" y="-15.4" font-family="sans-serif" font-size="14.00" fill="#000000"> &#160;Bootstrap</text>
<polygon fill="#fdb462" stroke="transparent" points="3415,-10 3415,-30 3435,-30 3435,-10 3415,-10"/>
<text text-anchor="start" x="3438.6732" y="-15.4" font-family="sans-serif" font-size="14.00" fill="#000000"> &#160;Providers</text>
<polygon fill="#fb8072" stroke="transparent" points="3511,-10 3511,-30 3531,-30 3531,-10 3511,-10"/>
<text text-anchor="start" x="3534.7258" y="-15.4" font-family="sans-serif" font-size="14.00" fill="#000000"> &#160;Exports</text>
<g id="clust1" class="cluster">
<title>cluster_AppModule</title>
<polygon fill="none" stroke="#000000" stroke-dasharray="1,5" points="950,-70 950,-274 2172,-274 2172,-70 950,-70"/>
</g>
<g id="clust2" class="cluster">
<title>cluster_AppModule_declarations</title>
<polygon fill="none" stroke="#000000" points="1357,-78 1357,-130 2164,-130 2164,-78 1357,-78"/>
</g>
<g id="clust8" class="cluster">
<title>cluster_AppModule_imports</title>
<polygon fill="none" stroke="#000000" points="958,-78 958,-130 1219,-130 1219,-78 958,-78"/>
</g>
<g id="clust10" class="cluster">
<title>cluster_AppModule_bootstrap</title>
<polygon fill="none" stroke="#000000" points="1468,-214 1468,-266 1592,-266 1592,-214 1468,-214"/>
</g>
<g id="clust11" class="cluster">
<title>cluster_AppModule_providers</title>
<polygon fill="none" stroke="#000000" points="1227,-78 1227,-130 1349,-130 1349,-78 1227,-78"/>
</g>
<g id="clust18" class="cluster">
<title>cluster_ManageUsersModule</title>
<polygon fill="none" stroke="#000000" stroke-dasharray="1,5" points="2180,-70 2180,-198 2946,-198 2946,-70 2180,-70"/>
</g>
<g id="clust19" class="cluster">
<title>cluster_ManageUsersModule_declarations</title>
<polygon fill="none" stroke="#000000" points="2394,-78 2394,-130 2938,-130 2938,-78 2394,-78"/>
</g>
<g id="clust23" class="cluster">
<title>cluster_ManageUsersModule_imports</title>
<polygon fill="none" stroke="#000000" points="2188,-78 2188,-130 2386,-130 2386,-78 2188,-78"/>
</g>
<g id="clust33" class="cluster">
<title>cluster_MarketingCheckerModule</title>
<polygon fill="none" stroke="#000000" stroke-dasharray="1,5" points="2954,-70 2954,-198 4477,-198 4477,-70 2954,-70"/>
</g>
<g id="clust34" class="cluster">
<title>cluster_MarketingCheckerModule_declarations</title>
<polygon fill="none" stroke="#000000" points="3196,-78 3196,-130 4469,-130 4469,-78 3196,-78"/>
</g>
<g id="clust41" class="cluster">
<title>cluster_MarketingCheckerModule_imports</title>
<polygon fill="none" stroke="#000000" points="2962,-78 2962,-130 3188,-130 3188,-78 2962,-78"/>
</g>
<g id="clust51" class="cluster">
<title>cluster_MarketingMakerModule</title>
<polygon fill="none" stroke="#000000" stroke-dasharray="1,5" points="4485,-70 4485,-198 5710,-198 5710,-70 4485,-70"/>
</g>
<g id="clust52" class="cluster">
<title>cluster_MarketingMakerModule_declarations</title>
<polygon fill="none" stroke="#000000" points="4717,-78 4717,-130 5702,-130 5702,-78 4717,-78"/>
</g>
<g id="clust58" class="cluster">
<title>cluster_MarketingMakerModule_imports</title>
<polygon fill="none" stroke="#000000" points="4493,-78 4493,-130 4709,-130 4709,-78 4493,-78"/>
</g>
<g id="clust68" class="cluster">
<title>cluster_SharedModule</title>
<polygon fill="none" stroke="#000000" stroke-dasharray="1,5" points="8,-138 8,-206 942,-206 942,-138 8,-138"/>
</g>
<g id="clust69" class="cluster">
<title>cluster_SharedModule_declarations</title>
<polygon fill="none" stroke="#000000" points="484,-146 484,-198 934,-198 934,-146 484,-146"/>
</g>
<g id="clust74" class="cluster">
<title>cluster_SharedModule_exports</title>
<polygon fill="none" stroke="#000000" points="16,-146 16,-198 476,-198 476,-146 16,-146"/>
</g>
<g id="clust77" class="cluster">
<title>cluster_UserCreationModule</title>
<polygon fill="none" stroke="#000000" stroke-dasharray="1,5" points="5718,-70 5718,-198 6110,-198 6110,-70 5718,-70"/>
</g>
<g id="clust78" class="cluster">
<title>cluster_UserCreationModule_declarations</title>
<polygon fill="none" stroke="#000000" points="5930,-78 5930,-130 6102,-130 6102,-78 5930,-78"/>
</g>
<g id="clust80" class="cluster">
<title>cluster_UserCreationModule_imports</title>
<polygon fill="none" stroke="#000000" points="5726,-78 5726,-130 5922,-130 5922,-78 5726,-78"/>
</g>
<g id="clust90" class="cluster">
<title>cluster_WhatsappModule</title>
<polygon fill="none" stroke="#000000" stroke-dasharray="1,5" points="6118,-70 6118,-198 6698,-198 6698,-70 6118,-70"/>
</g>
<g id="clust91" class="cluster">
<title>cluster_WhatsappModule_declarations</title>
<polygon fill="none" stroke="#000000" points="6310,-78 6310,-130 6690,-130 6690,-78 6310,-78"/>
</g>
<g id="clust94" class="cluster">
<title>cluster_WhatsappModule_imports</title>
<polygon fill="none" stroke="#000000" points="6126,-78 6126,-130 6302,-130 6302,-78 6126,-78"/>
</g>
<!-- AppComponent -->
<g id="node1" class="node">
<title>AppComponent</title>
<polygon fill="#ffffb3" stroke="#000000" points="2155.9399,-122 2050.0601,-122 2050.0601,-86 2155.9399,-86 2155.9399,-122"/>
<text text-anchor="middle" x="2103" y="-99.8" font-family="Times,serif" font-size="14.00" fill="#000000">AppComponent</text>
</g>
<!-- AppModule -->
<g id="node6" class="node">
<title>AppModule</title>
<polygon fill="#8dd3c7" stroke="#000000" points="1571.6571,-190 1568.6571,-194 1547.6571,-194 1544.6571,-190 1488.3429,-190 1488.3429,-154 1571.6571,-154 1571.6571,-190"/>
<text text-anchor="middle" x="1530" y="-167.8" font-family="Times,serif" font-size="14.00" fill="#000000">AppModule</text>
</g>
<!-- AppComponent&#45;&gt;AppModule -->
<g id="edge1" class="edge">
<title>AppComponent&#45;&gt;AppModule</title>
<path fill="none" stroke="#000000" d="M2103,-122.1686C2103,-143.498 2103,-176 2103,-176 2103,-176 1581.6703,-176 1581.6703,-176"/>
<polygon fill="#000000" stroke="#000000" points="1581.6703,-172.5001 1571.6703,-176 1581.6703,-179.5001 1581.6703,-172.5001"/>
</g>
<!-- ChangePasswordComponent -->
<g id="node2" class="node">
<title>ChangePasswordComponent</title>
<polygon fill="#ffffb3" stroke="#000000" points="2031.752,-122 1854.248,-122 1854.248,-86 2031.752,-86 2031.752,-122"/>
<text text-anchor="middle" x="1943" y="-99.8" font-family="Times,serif" font-size="14.00" fill="#000000">ChangePasswordComponent</text>
</g>
<!-- ChangePasswordComponent&#45;&gt;AppModule -->
<g id="edge2" class="edge">
<title>ChangePasswordComponent&#45;&gt;AppModule</title>
<path fill="none" stroke="#000000" d="M1943,-122.1061C1943,-141.3391 1943,-169 1943,-169 1943,-169 1581.8735,-169 1581.8735,-169"/>
<polygon fill="#000000" stroke="#000000" points="1581.8735,-165.5001 1571.8735,-169 1581.8734,-172.5001 1581.8735,-165.5001"/>
</g>
<!-- LoginComponent -->
<g id="node3" class="node">
<title>LoginComponent</title>
<polygon fill="#ffffb3" stroke="#000000" points="1836.2758,-122 1721.7242,-122 1721.7242,-86 1836.2758,-86 1836.2758,-122"/>
<text text-anchor="middle" x="1779" y="-99.8" font-family="Times,serif" font-size="14.00" fill="#000000">LoginComponent</text>
</g>
<!-- LoginComponent&#45;&gt;AppModule -->
<g id="edge3" class="edge">
<title>LoginComponent&#45;&gt;AppModule</title>
<path fill="none" stroke="#000000" d="M1779,-122.0336C1779,-139.0597 1779,-162 1779,-162 1779,-162 1581.677,-162 1581.677,-162"/>
<polygon fill="#000000" stroke="#000000" points="1581.677,-158.5001 1571.677,-162 1581.677,-165.5001 1581.677,-158.5001"/>
</g>
<!-- ProtectedHomeComponent -->
<g id="node4" class="node">
<title>ProtectedHomeComponent</title>
<polygon fill="#ffffb3" stroke="#000000" points="1703.4129,-122 1534.5871,-122 1534.5871,-86 1703.4129,-86 1703.4129,-122"/>
<text text-anchor="middle" x="1619" y="-99.8" font-family="Times,serif" font-size="14.00" fill="#000000">ProtectedHomeComponent</text>
</g>
<!-- ProtectedHomeComponent&#45;&gt;AppModule -->
<g id="edge4" class="edge">
<title>ProtectedHomeComponent&#45;&gt;AppModule</title>
<path fill="none" stroke="#000000" d="M1553.311,-122.2228C1553.311,-122.2228 1553.311,-143.7269 1553.311,-143.7269"/>
<polygon fill="#000000" stroke="#000000" points="1549.8111,-143.7269 1553.311,-153.7269 1556.8111,-143.727 1549.8111,-143.7269"/>
</g>
<!-- PublicHomeComponent -->
<g id="node5" class="node">
<title>PublicHomeComponent</title>
<polygon fill="#ffffb3" stroke="#000000" points="1516.8229,-122 1365.1771,-122 1365.1771,-86 1516.8229,-86 1516.8229,-122"/>
<text text-anchor="middle" x="1441" y="-99.8" font-family="Times,serif" font-size="14.00" fill="#000000">PublicHomeComponent</text>
</g>
<!-- PublicHomeComponent&#45;&gt;AppModule -->
<g id="edge5" class="edge">
<title>PublicHomeComponent&#45;&gt;AppModule</title>
<path fill="none" stroke="#000000" d="M1502.4166,-122.2228C1502.4166,-122.2228 1502.4166,-143.7269 1502.4166,-143.7269"/>
<polygon fill="#000000" stroke="#000000" points="1498.9166,-143.7269 1502.4166,-153.7269 1505.9166,-143.727 1498.9166,-143.7269"/>
</g>
<!-- AppComponent  -->
<g id="node9" class="node">
<title>AppComponent </title>
<polygon fill="#80b1d3" stroke="#000000" points="1584.439,-258 1475.561,-258 1475.561,-222 1584.439,-222 1584.439,-258"/>
<text text-anchor="middle" x="1530" y="-235.8" font-family="Times,serif" font-size="14.00" fill="#000000">AppComponent </text>
</g>
<!-- AppModule&#45;&gt;AppComponent  -->
<g id="edge8" class="edge">
<title>AppModule&#45;&gt;AppComponent </title>
<path fill="none" stroke="#000000" stroke-dasharray="1,5" d="M1530,-190.2228C1530,-190.2228 1530,-211.7269 1530,-211.7269"/>
<polygon fill="#000000" stroke="#000000" points="1526.5001,-211.7269 1530,-221.7269 1533.5001,-211.727 1526.5001,-211.7269"/>
</g>
<!-- AppRoutingModule -->
<g id="node7" class="node">
<title>AppRoutingModule</title>
<polygon fill="#8dd3c7" stroke="#000000" points="1211.2744,-122 1208.2744,-126 1187.2744,-126 1184.2744,-122 1082.7256,-122 1082.7256,-86 1211.2744,-86 1211.2744,-122"/>
<text text-anchor="middle" x="1147" y="-99.8" font-family="Times,serif" font-size="14.00" fill="#000000">AppRoutingModule</text>
</g>
<!-- AppRoutingModule&#45;&gt;AppModule -->
<g id="edge6" class="edge">
<title>AppRoutingModule&#45;&gt;AppModule</title>
<path fill="none" stroke="#000000" d="M1147,-122.1061C1147,-141.3391 1147,-169 1147,-169 1147,-169 1478.2832,-169 1478.2832,-169"/>
<polygon fill="#000000" stroke="#000000" points="1478.2832,-172.5001 1488.2832,-169 1478.2832,-165.5001 1478.2832,-172.5001"/>
</g>
<!-- SharedModule -->
<g id="node8" class="node">
<title>SharedModule</title>
<polygon fill="#8dd3c7" stroke="#000000" points="1064.4231,-122 1061.4231,-126 1040.4231,-126 1037.4231,-122 965.5769,-122 965.5769,-86 1064.4231,-86 1064.4231,-122"/>
<text text-anchor="middle" x="1015" y="-99.8" font-family="Times,serif" font-size="14.00" fill="#000000">SharedModule</text>
</g>
<!-- SharedModule&#45;&gt;AppModule -->
<g id="edge7" class="edge">
<title>SharedModule&#45;&gt;AppModule</title>
<path fill="none" stroke="#000000" d="M1051.9083,-122.1686C1051.9083,-143.498 1051.9083,-176 1051.9083,-176 1051.9083,-176 1477.9916,-176 1477.9916,-176"/>
<polygon fill="#000000" stroke="#000000" points="1477.9916,-179.5001 1487.9916,-176 1477.9915,-172.5001 1477.9916,-179.5001"/>
</g>
<!-- ManageUsersModule -->
<g id="node14" class="node">
<title>ManageUsersModule</title>
<polygon fill="#8dd3c7" stroke="#000000" points="2543.0101,-190 2540.0101,-194 2519.0101,-194 2516.0101,-190 2406.9899,-190 2406.9899,-154 2543.0101,-154 2543.0101,-190"/>
<text text-anchor="middle" x="2475" y="-167.8" font-family="Times,serif" font-size="14.00" fill="#000000">ManageUsersModule</text>
</g>
<!-- SharedModule&#45;&gt;ManageUsersModule -->
<g id="edge14" class="edge">
<title>SharedModule&#45;&gt;ManageUsersModule</title>
<path fill="none" stroke="#000000" d="M978.0917,-122.0439C978.0917,-134.5633 978.0917,-149 978.0917,-149 978.0917,-149 2452.2485,-149 2452.2485,-149 2452.2485,-149 2452.2485,-149.4878 2452.2485,-149.4878"/>
<polygon fill="#000000" stroke="#000000" points="2448.7487,-143.8776 2452.2485,-153.8777 2455.7487,-143.8778 2448.7487,-143.8776"/>
</g>
<!-- MarketingCheckerModule -->
<g id="node22" class="node">
<title>MarketingCheckerModule</title>
<polygon fill="#8dd3c7" stroke="#000000" points="3759.0071,-190 3756.0071,-194 3735.0071,-194 3732.0071,-190 3594.9929,-190 3594.9929,-154 3759.0071,-154 3759.0071,-190"/>
<text text-anchor="middle" x="3677" y="-167.8" font-family="Times,serif" font-size="14.00" fill="#000000">MarketingCheckerModule</text>
</g>
<!-- SharedModule&#45;&gt;MarketingCheckerModule -->
<g id="edge22" class="edge">
<title>SharedModule&#45;&gt;MarketingCheckerModule</title>
<path fill="none" stroke="#000000" d="M990.3945,-122.1274C990.3945,-132.7109 990.3945,-144 990.3945,-144 990.3945,-144 3621.1753,-144 3621.1753,-144 3621.1753,-144 3621.1753,-144.9793 3621.1753,-144.9793"/>
<polygon fill="#000000" stroke="#000000" points="3617.6754,-143.793 3621.1753,-153.793 3624.6754,-143.7931 3617.6754,-143.793"/>
</g>
<!-- MarketingMakerModule -->
<g id="node29" class="node">
<title>MarketingMakerModule</title>
<polygon fill="#8dd3c7" stroke="#000000" points="5120.4003,-190 5117.4003,-194 5096.4003,-194 5093.4003,-190 4965.5997,-190 4965.5997,-154 5120.4003,-154 5120.4003,-190"/>
<text text-anchor="middle" x="5043" y="-167.8" font-family="Times,serif" font-size="14.00" fill="#000000">MarketingMakerModule</text>
</g>
<!-- SharedModule&#45;&gt;MarketingMakerModule -->
<g id="edge29" class="edge">
<title>SharedModule&#45;&gt;MarketingMakerModule</title>
<path fill="none" stroke="#000000" d="M1002.6972,-122.1944C1002.6972,-130.2782 1002.6972,-138 1002.6972,-138 1002.6972,-138 5017.2667,-138 5017.2667,-138 5017.2667,-138 5017.2667,-143.8056 5017.2667,-143.8056"/>
<polygon fill="#000000" stroke="#000000" points="5013.7668,-143.8055 5017.2667,-153.8056 5020.7668,-143.8056 5013.7668,-143.8055"/>
</g>
<!-- SidenavComponent  -->
<g id="node34" class="node">
<title>SidenavComponent </title>
<polygon fill="#fb8072" stroke="#000000" points="467.9348,-190 338.0652,-190 338.0652,-154 467.9348,-154 467.9348,-190"/>
<text text-anchor="middle" x="403" y="-167.8" font-family="Times,serif" font-size="14.00" fill="#000000">SidenavComponent </text>
</g>
<!-- SharedModule&#45;&gt;SidenavComponent  -->
<g id="edge33" class="edge">
<title>SharedModule&#45;&gt;SidenavComponent </title>
<path fill="none" stroke="#000000" stroke-dasharray="5,2" d="M965.6942,-104C820.2331,-104 403,-104 403,-104 403,-104 403,-143.7772 403,-143.7772"/>
<polygon fill="#000000" stroke="#000000" points="399.5001,-143.7772 403,-153.7772 406.5001,-143.7773 399.5001,-143.7772"/>
</g>
<!-- ToastComponent  -->
<g id="node35" class="node">
<title>ToastComponent </title>
<polygon fill="#fb8072" stroke="#000000" points="319.9348,-190 204.0652,-190 204.0652,-154 319.9348,-154 319.9348,-190"/>
<text text-anchor="middle" x="262" y="-167.8" font-family="Times,serif" font-size="14.00" fill="#000000">ToastComponent </text>
</g>
<!-- SharedModule&#45;&gt;ToastComponent  -->
<g id="edge34" class="edge">
<title>SharedModule&#45;&gt;ToastComponent </title>
<path fill="none" stroke="#000000" stroke-dasharray="5,2" d="M965.5936,-98C798.0713,-98 262,-98 262,-98 262,-98 262,-143.7079 262,-143.7079"/>
<polygon fill="#000000" stroke="#000000" points="258.5001,-143.7078 262,-153.7079 265.5001,-143.7079 258.5001,-143.7078"/>
</g>
<!-- VerticalMenuComponent  -->
<g id="node36" class="node">
<title>VerticalMenuComponent </title>
<polygon fill="#fb8072" stroke="#000000" points="186.075,-190 23.925,-190 23.925,-154 186.075,-154 186.075,-190"/>
<text text-anchor="middle" x="105" y="-167.8" font-family="Times,serif" font-size="14.00" fill="#000000">VerticalMenuComponent </text>
</g>
<!-- SharedModule&#45;&gt;VerticalMenuComponent  -->
<g id="edge35" class="edge">
<title>SharedModule&#45;&gt;VerticalMenuComponent </title>
<path fill="none" stroke="#000000" stroke-dasharray="5,2" d="M965.7518,-92C776.2946,-92 105,-92 105,-92 105,-92 105,-143.8468 105,-143.8468"/>
<polygon fill="#000000" stroke="#000000" points="101.5001,-143.8467 105,-153.8468 108.5001,-143.8468 101.5001,-143.8467"/>
</g>
<!-- UserCreationModule -->
<g id="node38" class="node">
<title>UserCreationModule</title>
<polygon fill="#8dd3c7" stroke="#000000" points="5891.1839,-190 5888.1839,-194 5867.1839,-194 5864.1839,-190 5756.8161,-190 5756.8161,-154 5891.1839,-154 5891.1839,-190"/>
<text text-anchor="middle" x="5824" y="-167.8" font-family="Times,serif" font-size="14.00" fill="#000000">UserCreationModule</text>
</g>
<!-- SharedModule&#45;&gt;UserCreationModule -->
<g id="edge37" class="edge">
<title>SharedModule&#45;&gt;UserCreationModule</title>
<path fill="none" stroke="#000000" d="M1015,-122.2015C1015,-128.028 1015,-133 1015,-133 1015,-133 5801.636,-133 5801.636,-133 5801.636,-133 5801.636,-143.8701 5801.636,-143.8701"/>
<polygon fill="#000000" stroke="#000000" points="5798.1361,-143.8701 5801.636,-153.8701 5805.1361,-143.8701 5798.1361,-143.8701"/>
</g>
<!-- WhatsappModule -->
<g id="node42" class="node">
<title>WhatsappModule</title>
<polygon fill="#8dd3c7" stroke="#000000" points="6357.5298,-190 6354.5298,-194 6333.5298,-194 6330.5298,-190 6242.4702,-190 6242.4702,-154 6357.5298,-154 6357.5298,-190"/>
<text text-anchor="middle" x="6300" y="-167.8" font-family="Times,serif" font-size="14.00" fill="#000000">WhatsappModule</text>
</g>
<!-- SharedModule&#45;&gt;WhatsappModule -->
<g id="edge41" class="edge">
<title>SharedModule&#45;&gt;WhatsappModule</title>
<path fill="none" stroke="#000000" d="M1027.3028,-122.1903C1027.3028,-125.5376 1027.3028,-128 1027.3028,-128 1027.3028,-128 6259.5982,-128 6259.5982,-128 6259.5982,-128 6259.5982,-143.8495 6259.5982,-143.8495"/>
<polygon fill="#000000" stroke="#000000" points="6256.0983,-143.8494 6259.5982,-153.8495 6263.0983,-143.8495 6256.0983,-143.8494"/>
</g>
<!-- Interceptor -->
<g id="node10" class="node">
<title>Interceptor</title>
<ellipse fill="#fdb462" stroke="#000000" cx="1288" cy="-104" rx="53.2878" ry="18"/>
<text text-anchor="middle" x="1288" y="-99.8" font-family="Times,serif" font-size="14.00" fill="#000000">Interceptor</text>
</g>
<!-- Interceptor&#45;&gt;AppModule -->
<g id="edge9" class="edge">
<title>Interceptor&#45;&gt;AppModule</title>
<path fill="none" stroke="#000000" d="M1288,-122.0336C1288,-139.0597 1288,-162 1288,-162 1288,-162 1478.1231,-162 1478.1231,-162"/>
<polygon fill="#000000" stroke="#000000" points="1478.1231,-165.5001 1488.1231,-162 1478.1231,-158.5001 1478.1231,-165.5001"/>
</g>
<!-- DisableUserDialogComponent -->
<g id="node11" class="node">
<title>DisableUserDialogComponent</title>
<polygon fill="#ffffb3" stroke="#000000" points="2930.1232,-122 2741.8768,-122 2741.8768,-86 2930.1232,-86 2930.1232,-122"/>
<text text-anchor="middle" x="2836" y="-99.8" font-family="Times,serif" font-size="14.00" fill="#000000">DisableUserDialogComponent</text>
</g>
<!-- DisableUserDialogComponent&#45;&gt;ManageUsersModule -->
<g id="edge10" class="edge">
<title>DisableUserDialogComponent&#45;&gt;ManageUsersModule</title>
<path fill="none" stroke="#000000" d="M2836,-122.3228C2836,-145.6602 2836,-183 2836,-183 2836,-183 2553.3257,-183 2553.3257,-183"/>
<polygon fill="#000000" stroke="#000000" points="2553.3258,-179.5001 2543.3257,-183 2553.3257,-186.5001 2553.3258,-179.5001"/>
</g>
<!-- ManageUsersComponent -->
<g id="node12" class="node">
<title>ManageUsersComponent</title>
<polygon fill="#ffffb3" stroke="#000000" points="2724.2921,-122 2565.7079,-122 2565.7079,-86 2724.2921,-86 2724.2921,-122"/>
<text text-anchor="middle" x="2645" y="-99.8" font-family="Times,serif" font-size="14.00" fill="#000000">ManageUsersComponent</text>
</g>
<!-- ManageUsersComponent&#45;&gt;ManageUsersModule -->
<g id="edge11" class="edge">
<title>ManageUsersComponent&#45;&gt;ManageUsersModule</title>
<path fill="none" stroke="#000000" d="M2645,-122.1686C2645,-143.498 2645,-176 2645,-176 2645,-176 2553.166,-176 2553.166,-176"/>
<polygon fill="#000000" stroke="#000000" points="2553.166,-172.5001 2543.166,-176 2553.1659,-179.5001 2553.166,-172.5001"/>
</g>
<!-- UserDialogComponent -->
<g id="node13" class="node">
<title>UserDialogComponent</title>
<polygon fill="#ffffb3" stroke="#000000" points="2547.8613,-122 2402.1387,-122 2402.1387,-86 2547.8613,-86 2547.8613,-122"/>
<text text-anchor="middle" x="2475" y="-99.8" font-family="Times,serif" font-size="14.00" fill="#000000">UserDialogComponent</text>
</g>
<!-- UserDialogComponent&#45;&gt;ManageUsersModule -->
<g id="edge12" class="edge">
<title>UserDialogComponent&#45;&gt;ManageUsersModule</title>
<path fill="none" stroke="#000000" d="M2497.7515,-122.2228C2497.7515,-122.2228 2497.7515,-143.7269 2497.7515,-143.7269"/>
<polygon fill="#000000" stroke="#000000" points="2494.2516,-143.7269 2497.7515,-153.7269 2501.2516,-143.727 2494.2516,-143.7269"/>
</g>
<!-- ManageUsersRoutingModule -->
<g id="node15" class="node">
<title>ManageUsersRoutingModule</title>
<polygon fill="#8dd3c7" stroke="#000000" points="2377.6274,-122 2374.6274,-126 2353.6274,-126 2350.6274,-122 2196.3726,-122 2196.3726,-86 2377.6274,-86 2377.6274,-122"/>
<text text-anchor="middle" x="2287" y="-99.8" font-family="Times,serif" font-size="14.00" fill="#000000">ManageUsersRoutingModule</text>
</g>
<!-- ManageUsersRoutingModule&#45;&gt;ManageUsersModule -->
<g id="edge13" class="edge">
<title>ManageUsersRoutingModule&#45;&gt;ManageUsersModule</title>
<path fill="none" stroke="#000000" d="M2287,-122.3228C2287,-145.6602 2287,-183 2287,-183 2287,-183 2396.8619,-183 2396.8619,-183"/>
<polygon fill="#000000" stroke="#000000" points="2396.8619,-186.5001 2406.8619,-183 2396.8618,-179.5001 2396.8619,-186.5001"/>
</g>
<!-- ApproveTemplateDialogComponent -->
<g id="node16" class="node">
<title>ApproveTemplateDialogComponent</title>
<polygon fill="#ffffb3" stroke="#000000" points="4460.785,-122 4239.215,-122 4239.215,-86 4460.785,-86 4460.785,-122"/>
<text text-anchor="middle" x="4350" y="-99.8" font-family="Times,serif" font-size="14.00" fill="#000000">ApproveTemplateDialogComponent</text>
</g>
<!-- ApproveTemplateDialogComponent&#45;&gt;MarketingCheckerModule -->
<g id="edge15" class="edge">
<title>ApproveTemplateDialogComponent&#45;&gt;MarketingCheckerModule</title>
<path fill="none" stroke="#000000" d="M4350,-122.2228C4350,-142.3652 4350,-172 4350,-172 4350,-172 3769.1863,-172 3769.1863,-172"/>
<polygon fill="#000000" stroke="#000000" points="3769.1864,-168.5001 3759.1863,-172 3769.1863,-175.5001 3769.1864,-168.5001"/>
</g>
<!-- LaunchComponent -->
<g id="node17" class="node">
<title>LaunchComponent</title>
<polygon fill="#ffffb3" stroke="#000000" points="4221.8146,-122 4098.1854,-122 4098.1854,-86 4221.8146,-86 4221.8146,-122"/>
<text text-anchor="middle" x="4160" y="-99.8" font-family="Times,serif" font-size="14.00" fill="#000000">LaunchComponent</text>
</g>
<!-- LaunchComponent&#45;&gt;MarketingCheckerModule -->
<g id="edge16" class="edge">
<title>LaunchComponent&#45;&gt;MarketingCheckerModule</title>
<path fill="none" stroke="#000000" d="M4160,-122.2667C4160,-140.5552 4160,-166 4160,-166 4160,-166 3769.2079,-166 3769.2079,-166"/>
<polygon fill="#000000" stroke="#000000" points="3769.208,-162.5001 3759.2079,-166 3769.2079,-169.5001 3769.208,-162.5001"/>
</g>
<!-- LaunchDashboardComponent -->
<g id="node18" class="node">
<title>LaunchDashboardComponent</title>
<polygon fill="#ffffb3" stroke="#000000" points="4079.9552,-122 3896.0448,-122 3896.0448,-86 4079.9552,-86 4079.9552,-122"/>
<text text-anchor="middle" x="3988" y="-99.8" font-family="Times,serif" font-size="14.00" fill="#000000">LaunchDashboardComponent</text>
</g>
<!-- LaunchDashboardComponent&#45;&gt;MarketingCheckerModule -->
<g id="edge17" class="edge">
<title>LaunchDashboardComponent&#45;&gt;MarketingCheckerModule</title>
<path fill="none" stroke="#000000" d="M3988,-122.027C3988,-138.3976 3988,-160 3988,-160 3988,-160 3769.1184,-160 3769.1184,-160"/>
<polygon fill="#000000" stroke="#000000" points="3769.1184,-156.5001 3759.1184,-160 3769.1184,-163.5001 3769.1184,-156.5001"/>
</g>
<!-- MarketingCheckerComponent -->
<g id="node19" class="node">
<title>MarketingCheckerComponent</title>
<polygon fill="#ffffb3" stroke="#000000" points="3878.2892,-122 3691.7108,-122 3691.7108,-86 3878.2892,-86 3878.2892,-122"/>
<text text-anchor="middle" x="3785" y="-99.8" font-family="Times,serif" font-size="14.00" fill="#000000">MarketingCheckerComponent</text>
</g>
<!-- MarketingCheckerComponent&#45;&gt;MarketingCheckerModule -->
<g id="edge18" class="edge">
<title>MarketingCheckerComponent&#45;&gt;MarketingCheckerModule</title>
<path fill="none" stroke="#000000" d="M3725.5544,-122.2228C3725.5544,-122.2228 3725.5544,-143.7269 3725.5544,-143.7269"/>
<polygon fill="#000000" stroke="#000000" points="3722.0544,-143.7269 3725.5544,-153.7269 3729.0544,-143.727 3722.0544,-143.7269"/>
</g>
<!-- RejectTemplateDialogComponent -->
<g id="node20" class="node">
<title>RejectTemplateDialogComponent</title>
<polygon fill="#ffffb3" stroke="#000000" points="3674.0646,-122 3465.9354,-122 3465.9354,-86 3674.0646,-86 3674.0646,-122"/>
<text text-anchor="middle" x="3570" y="-99.8" font-family="Times,serif" font-size="14.00" fill="#000000">RejectTemplateDialogComponent</text>
</g>
<!-- RejectTemplateDialogComponent&#45;&gt;MarketingCheckerModule -->
<g id="edge19" class="edge">
<title>RejectTemplateDialogComponent&#45;&gt;MarketingCheckerModule</title>
<path fill="none" stroke="#000000" d="M3647.6038,-122.2228C3647.6038,-122.2228 3647.6038,-143.7269 3647.6038,-143.7269"/>
<polygon fill="#000000" stroke="#000000" points="3644.1039,-143.7269 3647.6038,-153.7269 3651.1039,-143.727 3644.1039,-143.7269"/>
</g>
<!-- ViewTemplateHistoryDialogComponent -->
<g id="node21" class="node">
<title>ViewTemplateHistoryDialogComponent</title>
<polygon fill="#ffffb3" stroke="#000000" points="3448.1147,-122 3203.8853,-122 3203.8853,-86 3448.1147,-86 3448.1147,-122"/>
<text text-anchor="middle" x="3326" y="-99.8" font-family="Times,serif" font-size="14.00" fill="#000000">ViewTemplateHistoryDialogComponent</text>
</g>
<!-- ViewTemplateHistoryDialogComponent&#45;&gt;MarketingCheckerModule -->
<g id="edge20" class="edge">
<title>ViewTemplateHistoryDialogComponent&#45;&gt;MarketingCheckerModule</title>
<path fill="none" stroke="#000000" d="M3326,-122.0336C3326,-139.0597 3326,-162 3326,-162 3326,-162 3584.7061,-162 3584.7061,-162"/>
<polygon fill="#000000" stroke="#000000" points="3584.7061,-165.5001 3594.7061,-162 3584.7061,-158.5001 3584.7061,-165.5001"/>
</g>
<!-- MarketingCheckerRoutingModule -->
<g id="node23" class="node">
<title>MarketingCheckerRoutingModule</title>
<polygon fill="#8dd3c7" stroke="#000000" points="3179.6245,-122 3176.6245,-126 3155.6245,-126 3152.6245,-122 2970.3755,-122 2970.3755,-86 3179.6245,-86 3179.6245,-122"/>
<text text-anchor="middle" x="3075" y="-99.8" font-family="Times,serif" font-size="14.00" fill="#000000">MarketingCheckerRoutingModule</text>
</g>
<!-- MarketingCheckerRoutingModule&#45;&gt;MarketingCheckerModule -->
<g id="edge21" class="edge">
<title>MarketingCheckerRoutingModule&#45;&gt;MarketingCheckerModule</title>
<path fill="none" stroke="#000000" d="M3075,-122.1061C3075,-141.3391 3075,-169 3075,-169 3075,-169 3584.8711,-169 3584.8711,-169"/>
<polygon fill="#000000" stroke="#000000" points="3584.8712,-172.5001 3594.8711,-169 3584.8711,-165.5001 3584.8712,-172.5001"/>
</g>
<!-- DashboardComponent -->
<g id="node24" class="node">
<title>DashboardComponent</title>
<polygon fill="#ffffb3" stroke="#000000" points="5693.9734,-122 5552.0266,-122 5552.0266,-86 5693.9734,-86 5693.9734,-122"/>
<text text-anchor="middle" x="5623" y="-99.8" font-family="Times,serif" font-size="14.00" fill="#000000">DashboardComponent</text>
</g>
<!-- DashboardComponent&#45;&gt;MarketingMakerModule -->
<g id="edge23" class="edge">
<title>DashboardComponent&#45;&gt;MarketingMakerModule</title>
<path fill="none" stroke="#000000" d="M5623,-122.2479C5623,-145.0179 5623,-181 5623,-181 5623,-181 5130.3193,-181 5130.3193,-181"/>
<polygon fill="#000000" stroke="#000000" points="5130.3193,-177.5001 5120.3193,-181 5130.3193,-184.5001 5130.3193,-177.5001"/>
</g>
<!-- MarketingMakerComponent -->
<g id="node25" class="node">
<title>MarketingMakerComponent</title>
<polygon fill="#ffffb3" stroke="#000000" points="5534.1825,-122 5357.8175,-122 5357.8175,-86 5534.1825,-86 5534.1825,-122"/>
<text text-anchor="middle" x="5446" y="-99.8" font-family="Times,serif" font-size="14.00" fill="#000000">MarketingMakerComponent</text>
</g>
<!-- MarketingMakerComponent&#45;&gt;MarketingMakerModule -->
<g id="edge24" class="edge">
<title>MarketingMakerComponent&#45;&gt;MarketingMakerModule</title>
<path fill="none" stroke="#000000" d="M5446,-122.2228C5446,-142.3652 5446,-172 5446,-172 5446,-172 5130.2256,-172 5130.2256,-172"/>
<polygon fill="#000000" stroke="#000000" points="5130.2257,-168.5001 5120.2256,-172 5130.2256,-175.5001 5130.2257,-168.5001"/>
</g>
<!-- MessageTemplateComponent -->
<g id="node26" class="node">
<title>MessageTemplateComponent</title>
<polygon fill="#ffffb3" stroke="#000000" points="5339.6783,-122 5156.3217,-122 5156.3217,-86 5339.6783,-86 5339.6783,-122"/>
<text text-anchor="middle" x="5248" y="-99.8" font-family="Times,serif" font-size="14.00" fill="#000000">MessageTemplateComponent</text>
</g>
<!-- MessageTemplateComponent&#45;&gt;MarketingMakerModule -->
<g id="edge25" class="edge">
<title>MessageTemplateComponent&#45;&gt;MarketingMakerModule</title>
<path fill="none" stroke="#000000" d="M5248,-122.0225C5248,-139.3734 5248,-163 5248,-163 5248,-163 5130.2096,-163 5130.2096,-163"/>
<polygon fill="#000000" stroke="#000000" points="5130.2096,-159.5001 5120.2096,-163 5130.2096,-166.5001 5130.2096,-159.5001"/>
</g>
<!-- PreApprovedOffersComponent -->
<g id="node27" class="node">
<title>PreApprovedOffersComponent</title>
<polygon fill="#ffffb3" stroke="#000000" points="5138.7198,-122 4947.2802,-122 4947.2802,-86 5138.7198,-86 5138.7198,-122"/>
<text text-anchor="middle" x="5043" y="-99.8" font-family="Times,serif" font-size="14.00" fill="#000000">PreApprovedOffersComponent</text>
</g>
<!-- PreApprovedOffersComponent&#45;&gt;MarketingMakerModule -->
<g id="edge26" class="edge">
<title>PreApprovedOffersComponent&#45;&gt;MarketingMakerModule</title>
<path fill="none" stroke="#000000" d="M5068.7333,-122.2228C5068.7333,-122.2228 5068.7333,-143.7269 5068.7333,-143.7269"/>
<polygon fill="#000000" stroke="#000000" points="5065.2334,-143.7269 5068.7333,-153.7269 5072.2334,-143.727 5065.2334,-143.7269"/>
</g>
<!-- PromotionalTemplateComponent -->
<g id="node28" class="node">
<title>PromotionalTemplateComponent</title>
<polygon fill="#ffffb3" stroke="#000000" points="4928.9212,-122 4725.0788,-122 4725.0788,-86 4928.9212,-86 4928.9212,-122"/>
<text text-anchor="middle" x="4827" y="-99.8" font-family="Times,serif" font-size="14.00" fill="#000000">PromotionalTemplateComponent</text>
</g>
<!-- PromotionalTemplateComponent&#45;&gt;MarketingMakerModule -->
<g id="edge27" class="edge">
<title>PromotionalTemplateComponent&#45;&gt;MarketingMakerModule</title>
<path fill="none" stroke="#000000" d="M4827,-122.2921C4827,-144.2057 4827,-178 4827,-178 4827,-178 4955.6291,-178 4955.6291,-178"/>
<polygon fill="#000000" stroke="#000000" points="4955.6292,-181.5001 4965.6291,-178 4955.6291,-174.5001 4955.6292,-181.5001"/>
</g>
<!-- MarketingMakerRoutingModule -->
<g id="node30" class="node">
<title>MarketingMakerRoutingModule</title>
<polygon fill="#8dd3c7" stroke="#000000" points="4700.5182,-122 4697.5182,-126 4676.5182,-126 4673.5182,-122 4501.4818,-122 4501.4818,-86 4700.5182,-86 4700.5182,-122"/>
<text text-anchor="middle" x="4601" y="-99.8" font-family="Times,serif" font-size="14.00" fill="#000000">MarketingMakerRoutingModule</text>
</g>
<!-- MarketingMakerRoutingModule&#45;&gt;MarketingMakerModule -->
<g id="edge28" class="edge">
<title>MarketingMakerRoutingModule&#45;&gt;MarketingMakerModule</title>
<path fill="none" stroke="#000000" d="M4601,-122.1532C4601,-145.7566 4601,-184 4601,-184 4601,-184 4955.7567,-184 4955.7567,-184"/>
<polygon fill="#000000" stroke="#000000" points="4955.7568,-187.5001 4965.7567,-184 4955.7567,-180.5001 4955.7568,-187.5001"/>
</g>
<!-- SidenavComponent -->
<g id="node31" class="node">
<title>SidenavComponent</title>
<polygon fill="#ffffb3" stroke="#000000" points="926.4356,-190 799.5644,-190 799.5644,-154 926.4356,-154 926.4356,-190"/>
<text text-anchor="middle" x="863" y="-167.8" font-family="Times,serif" font-size="14.00" fill="#000000">SidenavComponent</text>
</g>
<!-- SidenavComponent&#45;&gt;SharedModule -->
<g id="edge30" class="edge">
<title>SidenavComponent&#45;&gt;SharedModule</title>
<path fill="none" stroke="#000000" d="M926.2598,-183C976.9349,-183 1039.6056,-183 1039.6056,-183 1039.6056,-183 1039.6056,-132.3228 1039.6056,-132.3228"/>
<polygon fill="#000000" stroke="#000000" points="1043.1056,-132.3227 1039.6056,-122.3228 1036.1056,-132.3228 1043.1056,-132.3227"/>
</g>
<!-- ToastComponent -->
<g id="node32" class="node">
<title>ToastComponent</title>
<polygon fill="#ffffb3" stroke="#000000" points="782.4356,-190 669.5644,-190 669.5644,-154 782.4356,-154 782.4356,-190"/>
<text text-anchor="middle" x="726" y="-167.8" font-family="Times,serif" font-size="14.00" fill="#000000">ToastComponent</text>
</g>
<!-- ToastComponent&#45;&gt;SharedModule -->
<g id="edge31" class="edge">
<title>ToastComponent&#45;&gt;SharedModule</title>
<path fill="none" stroke="#000000" d="M726,-153.973C726,-137.6024 726,-116 726,-116 726,-116 955.6475,-116 955.6475,-116"/>
<polygon fill="#000000" stroke="#000000" points="955.6475,-119.5001 965.6475,-116 955.6475,-112.5001 955.6475,-119.5001"/>
</g>
<!-- VerticalMenuComponent -->
<g id="node33" class="node">
<title>VerticalMenuComponent</title>
<polygon fill="#ffffb3" stroke="#000000" points="651.5744,-190 492.4256,-190 492.4256,-154 651.5744,-154 651.5744,-190"/>
<text text-anchor="middle" x="572" y="-167.8" font-family="Times,serif" font-size="14.00" fill="#000000">VerticalMenuComponent</text>
</g>
<!-- VerticalMenuComponent&#45;&gt;SharedModule -->
<g id="edge32" class="edge">
<title>VerticalMenuComponent&#45;&gt;SharedModule</title>
<path fill="none" stroke="#000000" d="M572,-153.7333C572,-135.4448 572,-110 572,-110 572,-110 955.4718,-110 955.4718,-110"/>
<polygon fill="#000000" stroke="#000000" points="955.4718,-113.5001 965.4718,-110 955.4717,-106.5001 955.4718,-113.5001"/>
</g>
<!-- UserCreationComponent -->
<g id="node37" class="node">
<title>UserCreationComponent</title>
<polygon fill="#ffffb3" stroke="#000000" points="6093.9664,-122 5938.0336,-122 5938.0336,-86 6093.9664,-86 6093.9664,-122"/>
<text text-anchor="middle" x="6016" y="-99.8" font-family="Times,serif" font-size="14.00" fill="#000000">UserCreationComponent</text>
</g>
<!-- UserCreationComponent&#45;&gt;UserCreationModule -->
<g id="edge36" class="edge">
<title>UserCreationComponent&#45;&gt;UserCreationModule</title>
<path fill="none" stroke="#000000" d="M6016,-122.2228C6016,-142.3652 6016,-172 6016,-172 6016,-172 5901.1523,-172 5901.1523,-172"/>
<polygon fill="#000000" stroke="#000000" points="5901.1523,-168.5001 5891.1523,-172 5901.1522,-175.5001 5901.1523,-168.5001"/>
</g>
<!-- UserCreationRoutingModule -->
<g id="node39" class="node">
<title>UserCreationRoutingModule</title>
<polygon fill="#8dd3c7" stroke="#000000" points="5913.8019,-122 5910.8019,-126 5889.8019,-126 5886.8019,-122 5734.1981,-122 5734.1981,-86 5913.8019,-86 5913.8019,-122"/>
<text text-anchor="middle" x="5824" y="-99.8" font-family="Times,serif" font-size="14.00" fill="#000000">UserCreationRoutingModule</text>
</g>
<!-- UserCreationRoutingModule&#45;&gt;UserCreationModule -->
<g id="edge38" class="edge">
<title>UserCreationRoutingModule&#45;&gt;UserCreationModule</title>
<path fill="none" stroke="#000000" d="M5846.364,-122.2228C5846.364,-122.2228 5846.364,-143.7269 5846.364,-143.7269"/>
<polygon fill="#000000" stroke="#000000" points="5842.8641,-143.7269 5846.364,-153.7269 5849.8641,-143.727 5842.8641,-143.7269"/>
</g>
<!-- BlockWhatsappDialogComponent -->
<g id="node40" class="node">
<title>BlockWhatsappDialogComponent</title>
<polygon fill="#ffffb3" stroke="#000000" points="6682.3556,-122 6473.6444,-122 6473.6444,-86 6682.3556,-86 6682.3556,-122"/>
<text text-anchor="middle" x="6578" y="-99.8" font-family="Times,serif" font-size="14.00" fill="#000000">BlockWhatsappDialogComponent</text>
</g>
<!-- BlockWhatsappDialogComponent&#45;&gt;WhatsappModule -->
<g id="edge39" class="edge">
<title>BlockWhatsappDialogComponent&#45;&gt;WhatsappModule</title>
<path fill="none" stroke="#000000" d="M6578,-122.2228C6578,-142.3652 6578,-172 6578,-172 6578,-172 6367.6018,-172 6367.6018,-172"/>
<polygon fill="#000000" stroke="#000000" points="6367.6018,-168.5001 6357.6018,-172 6367.6017,-175.5001 6367.6018,-168.5001"/>
</g>
<!-- WhatsappComponent -->
<g id="node41" class="node">
<title>WhatsappComponent</title>
<polygon fill="#ffffb3" stroke="#000000" points="6455.8118,-122 6318.1882,-122 6318.1882,-86 6455.8118,-86 6455.8118,-122"/>
<text text-anchor="middle" x="6387" y="-99.8" font-family="Times,serif" font-size="14.00" fill="#000000">WhatsappComponent</text>
</g>
<!-- WhatsappComponent&#45;&gt;WhatsappModule -->
<g id="edge40" class="edge">
<title>WhatsappComponent&#45;&gt;WhatsappModule</title>
<path fill="none" stroke="#000000" d="M6338.0544,-122.2228C6338.0544,-122.2228 6338.0544,-143.7269 6338.0544,-143.7269"/>
<polygon fill="#000000" stroke="#000000" points="6334.5544,-143.7269 6338.0544,-153.7269 6341.5544,-143.727 6334.5544,-143.7269"/>
</g>
<!-- WhatsappRoutingModule -->
<g id="node43" class="node">
<title>WhatsappRoutingModule</title>
<polygon fill="#8dd3c7" stroke="#000000" points="6294.147,-122 6291.147,-126 6270.147,-126 6267.147,-122 6133.853,-122 6133.853,-86 6294.147,-86 6294.147,-122"/>
<text text-anchor="middle" x="6214" y="-99.8" font-family="Times,serif" font-size="14.00" fill="#000000">WhatsappRoutingModule</text>
</g>
<!-- WhatsappRoutingModule&#45;&gt;WhatsappModule -->
<g id="edge42" class="edge">
<title>WhatsappRoutingModule&#45;&gt;WhatsappModule</title>
<path fill="none" stroke="#000000" d="M6276.9607,-122.2228C6276.9607,-122.2228 6276.9607,-143.7269 6276.9607,-143.7269"/>
<polygon fill="#000000" stroke="#000000" points="6273.4608,-143.7269 6276.9607,-153.7269 6280.4608,-143.727 6273.4608,-143.7269"/>
</g>
</g>
</svg>
